<svg xmlns="http://www.w3.org/2000/svg" viewBox="0 0 960 500"><path id="FJ" d="M960.0,272.6L958.3,273.7L956.6,274.0L957.6,273.1L960.0,272.6Z M955.0,274.7L956.6,274.9L956.1,275.6L954.5,275.8L953.0,275.7L953.8,274.5Z M0.6,272.5L0.0,273.3L0.6,272.5Z"/><path id="TZ" d="M570.4,251.3L580.5,254.3L580.7,255.1L584.5,256.5L583.3,258.2L583.5,259.0L585.2,259.5L584.5,260.7L584.5,261.8L585.4,262.7L586.5,264.1L585.4,265.2L582.5,265.8L580.9,265.8L578.1,266.2L574.2,266.0L572.2,266.1L571.4,264.2L570.0,263.1L567.4,262.9L565.8,262.5L564.2,262.2L562.0,261.6L560.5,259.9L559.0,259.1L558.5,258.3L558.7,257.5L558.2,256.3L560.3,255.7L561.3,255.0L562.0,254.2L561.3,253.4L562.2,252.4L561.1,251.6L565.0,251.4L570.4,251.3Z"/><path id="EH" d="M456.9,210.0L456.8,212.8L448.1,212.7L448.2,216.6L445.7,216.7L445.0,217.5L445.5,219.7L435.1,219.7L440.7,219.4L442.1,218.2L443.0,216.1L446.7,214.5L447.9,212.5L449.6,211.2L451.9,211.0L454.0,211.2L456.5,210.8L456.5,210.0Z"/><path id="CA" d="M152.4,171.7L146.9,169.6L145.0,168.7L140.2,167.8L138.7,165.8L139.1,164.4L135.7,163.4L135.2,161.6L132.0,159.9L131.9,158.6L133.4,157.5L133.3,155.9L128.8,154.3L126.1,151.4L124.4,149.5L121.9,148.3L120.1,147.2L118.7,145.8L116.1,146.7L113.5,148.2L111.1,146.4L109.2,145.2L106.6,144.4L104.0,144.3L104.0,126.8L104.0,113.1L109.0,114.0L113.2,115.9L116.0,116.3L118.3,114.6L121.6,113.4L125.5,113.9L129.5,112.1L133.9,111.1L135.7,112.8L137.7,111.8L140.1,110.4L144.6,114.0L148.2,111.3L148.6,114.3L151.8,113.7L156.1,112.7L160.2,114.4L166.4,115.8L170.1,116.5L172.7,116.2L176.3,118.2L172.5,120.0L177.3,120.8L184.5,120.4L186.8,119.7L189.7,121.9L192.6,120.1L189.8,118.5L191.6,117.2L194.8,117.0L196.9,116.6L199.1,117.6L201.8,119.6L204.7,119.3L209.5,121.0L213.6,120.4L217.5,120.5L217.2,118.1L219.5,117.5L223.7,118.8L223.7,122.2L225.4,119.3L227.5,119.4L228.7,115.6L225.9,113.2L222.7,111.5L223.0,106.9L226.1,103.7L229.6,104.4L232.3,106.4L235.9,111.1L233.6,113.1L238.5,113.9L238.5,117.9L242.1,114.9L245.3,117.3L244.5,120.1L247.1,122.6L249.9,119.9L251.8,116.7L251.9,112.4L255.7,112.7L259.7,113.3L263.3,115.2L261.4,119.2L263.3,121.1L257.7,125.4L254.0,125.9L251.3,124.8L250.5,126.6L247.9,129.4L244.0,133.0L240.2,133.2L238.1,134.6L237.9,136.6L234.8,137.0L231.6,139.4L228.7,142.7L227.7,144.9L227.5,148.1L231.4,148.5L232.6,151.0L233.9,153.0L237.6,152.5L242.6,153.6L245.2,154.5L247.1,155.7L250.5,156.4L253.3,157.4L257.7,157.6L260.6,157.8L260.2,159.9L261.0,162.2L262.9,164.8L266.9,166.9L269.0,166.2L270.4,163.9L269.0,160.2L267.1,159.0L271.4,157.8L274.4,156.1L275.9,154.4L275.7,152.7L273.9,150.5L270.6,148.5L273.8,145.6L272.6,143.1L271.7,138.5L273.6,137.8L278.1,138.6L280.9,138.9L283.1,138.1L285.6,139.2L288.9,140.9L294.4,142.2L294.3,144.6L295.2,148.1L297.7,148.5L299.6,150.0L303.5,148.6L306.0,145.6L307.8,144.3L309.9,146.7L313.3,150.2L316.3,153.3L315.2,154.8L318.8,156.3L321.1,157.7L325.4,158.3L327.1,159.0L328.2,161.1L330.2,161.4L331.5,164.8L329.6,165.7L327.7,166.5L323.3,167.2L319.9,169.0L315.4,169.4L309.7,168.9L305.7,168.9L302.9,169.1L300.7,170.6L297.3,171.6L293.5,174.3L290.4,176.2L292.7,175.9L296.9,173.2L302.5,171.4L306.5,171.2L308.9,172.3L306.4,173.7L307.2,175.9L308.1,177.4L311.5,178.4L315.9,178.1L318.6,175.8L318.8,177.3L320.5,178.0L317.2,179.3L311.3,180.5L308.7,181.3L305.7,182.7L303.7,182.5L303.6,180.9L308.2,179.3L303.9,179.4L301.0,179.6L299.2,178.5L299.2,175.7L296.3,175.5L293.3,176.5L292.5,178.1L290.4,179.3L284.4,179.8L280.4,179.9L276.3,181.6L272.7,182.5L270.1,182.5L269.5,183.8L266.0,184.9L263.3,185.2L260.2,186.2L258.6,185.9L258.9,184.8L260.2,183.8L261.0,182.6L260.4,181.0L259.9,179.2L257.1,178.2L255.6,176.9L253.9,176.6L251.6,175.4L249.4,174.7L246.8,173.9L244.3,173.2L241.9,173.8L237.8,173.2L235.6,173.5L233.0,172.9L230.3,172.5L228.5,172.4L227.2,170.9L220.7,171.7L211.6,171.7L202.5,171.7L194.5,171.7L186.5,171.7L178.7,171.7L170.5,171.7L167.9,171.7L160.0,171.7L152.4,171.7Z M256.0,138.1L258.0,136.7L261.7,136.8L258.5,139.0L256.6,138.9Z M267.3,99.7L264.3,97.1L265.7,95.1L271.8,95.6L276.4,98.3L273.8,99.4L271.0,99.3L268.0,100.0Z M265.8,139.2L267.9,138.4L267.6,140.5L265.7,139.4Z M230.4,88.8L228.9,90.8L225.0,90.4L221.8,89.0L223.2,86.6L227.1,85.1L229.4,87.0Z M229.8,73.9L223.5,73.6L228.2,71.9L230.1,73.1Z M222.0,65.4L225.2,67.9L220.5,71.7L218.3,70.2L217.0,64.7L220.4,65.0L222.0,65.4Z M244.9,91.8L240.6,91.2L233.5,89.5L232.6,86.5L229.6,81.2L224.1,80.5L221.0,78.7L227.5,76.5L230.5,78.5L235.7,78.5L238.0,80.5L240.5,84.0L242.2,85.3L245.8,85.6L249.7,86.0L253.9,84.8L259.3,84.3L263.7,84.7L266.5,86.8L265.4,90.5L261.5,91.6L258.1,91.0L250.4,91.8L244.9,91.8Z M183.3,69.7L187.1,70.8L181.2,74.6L177.2,72.5L179.4,70.4L183.3,69.7Z M184.1,65.2L187.6,66.6L184.3,68.0L179.9,68.0L182.7,64.8L184.1,65.2Z M331.7,166.7L330.3,168.1L328.5,170.0L330.3,169.2L332.1,169.7L333.5,171.0L337.4,171.2L336.6,172.7L338.4,172.4L338.8,173.5L339.6,174.8L338.5,176.6L335.5,176.3L336.1,174.6L332.3,176.1L330.7,176.0L332.6,175.1L330.0,174.6L327.1,174.7L322.0,174.6L323.2,173.3L324.3,171.4L327.0,168.0L328.7,166.8L331.0,166.0Z M256.3,129.8L259.2,130.9L262.3,131.9L264.5,133.2L266.4,134.2L264.0,135.2L259.9,134.4L258.4,133.0L255.7,134.7L251.9,136.3L251.0,134.5L247.4,134.8L249.7,133.2L250.1,130.7L251.0,127.7L252.9,127.9L254.8,128.9L256.3,129.8Z M269.9,101.8L272.5,99.9L278.4,102.3L282.1,104.4L287.4,105.3L290.1,108.1L296.6,109.7L298.9,111.4L301.4,115.1L296.5,116.9L302.8,119.4L307.0,120.2L310.9,123.5L315.1,123.8L314.2,126.2L309.6,130.1L306.3,128.7L302.1,125.4L298.6,125.9L298.3,127.8L301.1,129.8L304.7,131.3L307.5,135.2L306.6,137.5L303.3,136.6L296.6,134.1L300.3,136.8L303.1,138.6L296.3,138.5L290.6,136.7L287.4,135.2L284.3,132.7L280.4,131.2L272.8,132.6L270.5,131.5L272.3,129.1L277.3,129.0L282.8,128.6L282.8,125.7L286.3,122.3L284.5,119.4L280.4,117.6L275.0,116.3L276.7,115.3L273.9,112.8L271.6,112.6L269.4,111.2L268.0,112.4L263.2,112.9L253.5,112.0L247.8,110.8L243.5,110.2L241.3,108.7L244.1,106.8L240.3,106.8L239.5,102.3L241.5,98.1L244.2,96.1L251.1,94.8L249.2,98.0L251.3,100.9L253.7,97.1L260.5,95.1L265.1,100.1L264.7,103.1L269.9,101.8Z M228.0,93.2L233.5,93.3L238.6,94.6L234.7,98.9L231.5,99.8L228.6,103.2L225.6,103.1L223.9,99.0L225.3,94.5L228.0,93.2Z M152.4,82.4L156.9,78.0L162.4,73.9L166.5,74.0L170.1,73.1L169.8,77.9L167.7,80.0L165.2,80.3L160.3,82.8L156.0,83.7L152.4,82.4Z M126.1,160.4L128.7,160.3L127.9,162.9L130.2,164.7L127.5,163.7L125.2,161.9L124.9,160.1Z M198.7,61.5L203.9,62.5L211.1,65.2L213.2,68.5L209.9,70.6L205.5,68.4L199.5,68.1L202.1,66.1L198.9,64.3Z M150.6,172.7L149.3,173.0L144.9,172.1L141.7,170.6L138.5,169.6L137.5,168.4L140.5,168.4L142.1,168.7L144.7,168.9L146.9,170.7L149.5,171.6L150.6,172.7Z M155.9,91.6L159.7,92.6L166.5,92.9L169.1,94.4L172.0,96.5L168.6,97.7L162.1,101.0L158.8,104.2L151.8,108.2L150.3,106.3L144.2,103.9L147.2,98.6L149.5,95.4L146.9,92.4L155.9,91.6Z M192.5,84.0L194.9,83.0L197.7,83.3L196.5,88.6L187.5,89.5L180.7,91.7L176.7,91.8L181.9,87.8L169.8,88.4L166.1,87.4L169.7,81.9L172.3,80.3L179.8,82.3L184.5,85.6L189.2,86.1L185.3,80.6L187.8,78.4L190.5,79.1L192.5,84.0Z M195.9,98.4L198.9,100.3L200.6,104.7L201.4,107.8L205.9,109.9L210.7,111.8L206.1,113.9L207.8,115.4L202.0,116.2L197.4,115.2L194.3,115.4L189.3,116.7L182.6,117.3L177.8,117.6L176.4,115.8L172.7,114.8L170.4,115.2L167.1,112.1L168.9,111.6L173.0,110.9L176.7,111.1L180.2,110.4L175.1,109.4L169.4,109.8L165.6,109.7L164.2,108.1L170.4,106.4L166.3,106.5L161.6,105.3L163.8,102.0L165.7,100.1L172.8,97.2L175.6,98.2L180.2,99.0L183.9,101.3L186.9,98.9L189.3,100.5L191.5,104.9L192.8,103.1L190.9,98.3L193.3,97.6L195.9,98.4Z M212.2,100.1L209.2,97.0L212.4,94.6L215.6,95.7L220.3,95.0L218.5,98.8L222.6,100.8L222.1,104.9L217.7,106.6L215.1,106.2L213.3,104.5L206.7,101.0L212.2,100.1Z M195.7,95.8L199.3,95.6L201.3,96.7L199.0,99.9L194.8,96.5Z M217.3,78.9L219.4,81.6L219.5,84.6L218.2,88.6L213.8,89.2L211.0,88.3L211.0,85.1L206.7,85.6L206.5,81.1L209.4,81.3L213.4,79.3L217.1,79.6Z M224.0,51.2L225.8,48.5L228.5,47.9L233.6,45.4L237.0,50.1L241.5,51.9L245.8,53.5L247.9,58.8L251.2,61.3L247.5,63.5L242.6,68.8L237.9,69.3L232.3,68.4L229.5,65.5L231.6,60.9L226.7,61.0L223.8,58.5L222.1,54.9L224.0,51.2Z M235.8,39.3L239.7,37.4L242.8,37.1L248.1,35.5L252.0,31.5L255.3,32.1L258.2,35.0L260.2,29.2L263.7,27.4L268.5,26.1L276.7,25.7L278.1,26.9L285.8,24.9L291.6,25.7L297.3,26.4L304.5,27.3L310.2,28.8L315.1,31.8L308.4,39.0L302.0,41.0L299.6,43.1L305.4,43.1L299.1,48.6L294.7,51.0L290.2,57.7L284.7,59.0L283.0,60.6L274.9,61.4L278.6,62.3L276.7,63.6L279.0,67.1L276.4,69.5L272.3,71.4L267.3,75.8L272.2,77.0L265.2,82.1L258.2,80.5L250.4,81.4L246.4,80.7L241.4,80.3L246.0,76.0L244.6,71.4L246.3,70.9L253.4,73.8L249.8,69.5L245.4,68.2L247.6,65.5L252.3,63.8L249.3,58.2L248.2,54.1L255.5,54.4L257.6,55.3L261.7,52.3L255.7,51.4L246.4,51.9L241.7,49.0L239.5,45.4L236.4,42.6Z M279.4,121.7L277.7,122.8L274.7,122.9L275.2,119.1L277.6,118.6L279.7,119.6L279.4,121.7Z M223.3,113.9L224.9,115.4L223.3,116.8L219.7,115.6L217.5,116.1L213.9,114.3L216.2,113.1L218.1,111.3L220.9,112.5L222.5,113.2Z M307.9,169.8L312.4,170.2L315.1,171.1L310.4,170.9L307.9,169.8Z M309.3,175.8L312.2,177.0L314.6,177.0L312.3,177.9L309.0,177.1L309.3,175.8Z"/><path id="US" d="M152.4,171.7L160.0,171.7L167.9,171.7L170.5,171.7L178.7,171.7L186.5,171.7L194.5,171.7L202.5,171.7L211.6,171.7L220.7,171.7L226.2,171.7L227.6,172.0L230.3,172.5L233.0,172.9L235.6,173.5L237.8,173.2L241.1,173.8L244.3,173.2L246.8,173.9L249.4,174.7L251.6,175.4L253.7,176.1L255.1,177.1L257.0,177.6L259.9,179.2L260.4,181.0L261.0,182.6L260.2,183.8L258.9,184.8L258.6,185.9L260.2,186.2L263.3,185.2L266.0,184.9L269.5,184.0L268.9,182.8L272.7,182.5L275.1,182.5L279.2,180.2L284.4,179.8L289.3,179.8L291.6,179.0L293.3,176.5L295.4,174.9L298.0,175.1L299.2,178.5L301.0,179.6L298.6,181.2L295.8,181.8L293.0,182.4L291.6,183.6L291.1,185.0L292.0,186.0L293.6,185.8L291.6,186.6L288.4,186.9L285.7,187.1L283.4,187.6L287.4,187.2L284.4,188.1L282.7,188.1L282.2,189.8L280.3,191.2L278.6,190.2L279.1,191.2L279.8,192.2L277.5,194.2L278.1,193.0L276.7,192.3L276.4,190.8L276.5,192.7L274.7,192.4L276.5,193.0L276.6,194.7L278.1,197.1L276.4,198.4L273.6,198.9L271.9,199.9L269.2,200.6L265.9,202.2L264.4,203.0L263.1,204.0L262.7,205.1L263.2,206.2L264.1,207.6L265.2,208.7L266.5,211.2L266.4,212.3L265.7,213.8L263.5,213.8L262.1,212.8L260.7,211.5L259.5,210.3L259.6,208.6L258.9,207.7L256.8,206.4L253.0,206.9L251.3,206.0L249.6,205.6L246.6,205.8L244.2,205.7L242.2,205.8L241.5,207.1L239.6,207.7L237.7,207.6L235.7,206.8L233.3,207.0L231.4,206.6L229.7,206.7L227.5,207.1L225.1,208.3L222.4,209.0L221.0,209.7L220.3,211.5L221.0,212.8L218.0,212.5L215.9,212.0L214.6,210.2L213.0,209.3L212.1,208.4L210.8,207.3L208.9,206.6L206.7,206.7L205.0,207.9L202.8,207.5L201.4,207.0L200.8,206.1L199.9,205.3L198.3,204.5L197.0,204.0L191.4,203.4L189.2,204.1L183.9,204.1L177.9,203.0L173.8,202.2L170.7,202.0L167.7,202.2L167.2,201.3L165.5,200.4L163.9,199.7L162.5,199.6L159.0,199.0L158.0,197.8L155.4,196.1L153.2,193.7L152.1,192.7L150.1,191.2L149.7,189.7L148.3,188.7L148.9,187.2L148.8,185.6L147.9,184.2L149.0,182.4L149.3,180.6L149.6,178.8L149.1,176.1L148.3,174.4L147.8,173.0L151.7,173.7L153.1,175.7L153.3,173.4L152.4,171.7Z M65.6,221.5L67.2,222.4L65.2,223.0L63.8,222.1L64.4,221.2Z M64.0,220.5L62.4,220.5L64.0,220.5Z M62.0,219.9L60.5,220.0L62.0,219.9Z M36.1,144.1L38.2,144.4L36.8,145.9L35.1,145.4L33.5,144.6L36.1,144.1Z M71.4,150.7L73.2,150.9L72.0,152.9L69.3,153.9L68.0,153.2L70.0,151.1L71.4,150.7Z M104.0,113.1L104.0,126.8L104.0,144.3L106.6,144.4L109.2,145.2L111.1,146.4L113.5,148.2L116.1,146.7L118.7,145.8L120.1,147.2L121.9,148.3L124.4,149.5L126.1,151.4L128.8,154.3L133.3,155.9L133.4,157.5L131.9,158.6L130.4,157.7L128.1,156.9L127.3,154.8L123.9,152.7L122.5,150.3L119.9,150.1L115.7,150.0L112.5,149.3L107.0,146.5L104.5,146.0L99.8,145.0L96.1,145.2L90.9,143.9L87.7,142.7L84.7,143.3L85.3,145.3L83.8,145.4L80.7,146.0L78.4,146.9L75.4,147.5L75.0,145.9L76.2,143.2L79.1,142.3L74.9,143.2L73.1,145.0L69.3,147.0L71.2,148.3L68.7,150.2L65.8,151.3L63.2,152.1L58.4,154.5L54.4,156.8L52.6,156.6L50.1,157.3L47.4,158.1L45.1,158.9L40.6,159.6L43.1,158.1L45.7,157.3L48.5,156.0L51.8,155.7L56.8,153.1L59.4,151.7L59.9,149.7L61.2,148.2L58.1,149.0L55.8,149.5L54.1,148.1L52.4,147.7L49.7,148.8L48.1,148.8L47.9,147.2L46.6,145.2L43.2,145.8L40.9,144.5L39.1,143.8L39.1,142.2L37.0,140.9L38.0,139.2L40.2,137.6L41.2,136.0L43.3,135.8L45.2,136.3L47.3,134.8L49.2,135.1L51.3,134.1L49.3,132.1L51.3,130.8L49.6,130.8L46.8,131.6L43.9,131.6L40.1,131.9L36.2,131.1L31.7,127.9L35.5,126.5L41.4,124.8L43.6,124.8L48.9,126.4L46.7,124.2L43.4,122.9L41.5,121.1L39.0,119.5L35.3,118.3L36.8,116.3L41.5,116.2L44.9,114.4L48.2,110.5L50.8,110.1L55.9,108.2L58.3,108.5L62.5,106.2L66.5,107.1L68.4,109.0L74.1,108.5L78.0,110.1L80.7,109.7L86.4,111.0L91.5,111.4L93.5,111.9L97.1,111.3L101.1,112.5L104.0,113.1Z M22.0,134.0L23.7,134.6L25.4,134.3L27.5,135.1L30.2,135.5L27.9,136.5L25.9,135.9L22.5,135.5Z"/><path id="KZ" d="M713.0,171.3L710.9,172.7L708.7,172.9L708.6,174.9L707.1,175.9L701.8,175.2L699.9,178.8L698.5,179.2L693.2,180.0L695.6,183.4L693.8,183.9L694.0,185.0L692.4,184.7L691.0,184.0L687.1,183.8L682.7,183.7L677.9,183.2L676.4,183.6L676.0,184.7L671.6,184.0L669.8,184.3L667.7,185.5L664.2,186.8L663.0,188.1L661.3,187.2L657.9,187.2L657.4,185.6L656.3,183.7L653.1,182.3L648.5,182.5L645.4,182.8L642.8,181.0L640.6,180.3L636.5,178.9L629.1,179.9L629.2,186.9L627.9,187.0L626.0,185.5L624.2,185.0L621.2,185.4L620.0,184.1L616.9,183.5L615.7,181.7L614.2,181.3L616.7,180.8L616.8,179.4L619.1,179.1L621.4,179.4L621.9,177.4L621.4,176.2L618.8,176.3L616.5,175.8L613.4,176.7L610.9,177.1L609.6,176.8L609.9,175.7L608.2,174.3L606.2,174.4L603.9,173.0L605.4,171.4L606.8,168.6L609.5,169.8L609.9,168.3L615.4,165.8L619.5,165.8L625.4,167.3L628.6,168.2L631.4,167.3L635.6,167.2L639.0,168.4L643.6,167.8L639.9,165.2L642.5,164.1L644.5,162.9L642.6,161.3L653.8,159.7L661.8,158.2L664.2,157.2L669.0,157.7L669.8,160.2L672.6,159.6L676.0,160.5L675.8,161.7L678.4,161.6L685.0,159.4L687.5,161.9L693.4,167.7L694.8,166.5L698.5,167.8L702.4,167.2L703.8,167.6L705.1,168.9L707.0,169.3L711.5,169.9L713.0,171.3Z"/><path id="UZ" d="M629.2,186.9L629.1,179.9L636.0,178.7L640.6,180.3L642.8,181.0L645.4,182.8L648.5,182.5L653.1,182.3L656.3,183.7L656.1,185.6L657.9,187.2L661.3,187.2L663.0,188.1L664.2,186.8L667.7,185.5L669.2,185.1L667.8,186.5L669.8,187.2L671.7,186.7L674.8,187.7L671.4,189.0L669.4,188.8L667.9,188.4L664.9,188.0L664.0,189.1L662.8,190.1L660.5,190.0L661.8,191.3L662.4,192.6L660.9,194.4L658.9,194.0L657.4,194.0L657.5,192.9L653.9,192.2L651.1,191.3L649.4,190.4L646.3,189.2L645.0,187.3L641.2,187.1L639.9,185.2L636.3,184.2L634.1,185.3L631.8,185.9L632.3,186.9L629.2,186.9Z"/><path id="PG" d="M856.0,253.6L860.6,254.6L865.6,255.4L867.4,256.1L868.9,256.8L869.3,257.6L873.7,258.5L874.4,259.2L871.9,259.4L872.5,260.3L874.9,261.2L876.6,262.7L878.2,262.7L880.1,263.5L882.1,264.4L880.1,264.9L877.1,264.4L874.4,264.1L872.4,263.2L870.8,262.5L869.5,261.2L866.0,260.6L863.7,261.0L862.1,261.5L862.4,262.5L860.3,263.0L858.8,262.8L856.1,262.7L856.0,258.2L856.0,253.6Z M887.0,255.1L888.4,256.3L887.0,255.8L885.2,254.8L883.7,254.2L881.8,253.8L883.9,253.9L886.0,254.5Z M883.5,258.1L882.0,258.5L880.6,258.8L879.2,258.8L877.0,258.4L875.5,258.0L878.1,257.8L879.6,257.7L880.4,257.0L880.6,257.7L882.2,257.6L884.4,256.6L884.1,255.8L885.7,255.8L886.2,256.8L885.3,257.6L883.9,257.7Z M892.7,257.4L894.8,258.6L895.7,259.5L893.8,259.1L892.6,258.2L892.0,257.1Z"/><path id="ID" d="M856.0,253.6L856.0,258.2L856.1,262.7L853.7,261.6L851.0,261.3L847.0,261.7L848.1,260.6L849.8,260.2L849.1,258.7L847.8,257.5L842.6,256.3L840.4,256.2L836.4,254.9L834.6,255.7L834.0,254.6L832.0,253.9L834.8,253.4L836.7,253.4L832.6,253.1L831.6,252.2L829.2,252.0L831.6,251.0L833.0,250.5L837.3,251.1L838.5,253.8L841.2,254.7L843.4,253.2L846.5,252.4L848.9,252.4L851.2,252.8L853.1,253.3L856.0,253.6Z M813.2,262.4L813.6,263.1L811.8,264.2L809.5,264.5L810.6,263.0L813.2,262.4Z M837.9,259.6L837.6,258.5L838.7,257.6L839.3,258.6L837.9,259.6Z M794.4,244.2L792.8,245.5L794.8,246.8L797.3,248.7L794.2,248.9L793.3,249.9L793.4,251.1L790.8,252.1L790.8,253.5L789.7,255.6L786.3,255.7L785.2,254.9L783.3,254.8L778.8,254.8L776.1,254.2L773.9,254.1L773.5,252.2L770.9,250.6L770.5,249.4L770.9,248.1L772.4,247.2L772.9,248.1L774.7,248.9L776.4,248.6L778.1,248.7L779.7,248.0L783.5,248.3L785.7,248.0L787.0,246.1L789.0,244.0L792.0,244.0L794.4,244.2Z M825.0,253.9L827.9,254.3L828.9,255.4L826.6,254.8L824.4,254.7L822.9,254.8L821.1,254.7L821.7,254.0L825.0,253.9Z M818.3,255.3L816.5,255.0L818.7,254.3L818.3,255.3Z M821.2,247.0L821.3,247.7L822.9,247.9L823.0,249.6L821.7,249.5L821.2,250.4L822.3,251.1L820.5,250.4L819.7,248.6L820.3,247.5Z M807.8,248.8L810.9,248.7L813.5,247.7L811.8,249.4L809.8,249.7L807.3,249.4L802.8,249.5L800.5,249.7L800.1,250.7L802.5,252.0L803.9,251.3L808.9,250.9L807.5,251.3L806.4,252.1L804.0,252.6L806.5,254.4L808.5,256.5L808.4,257.4L807.0,257.8L807.3,256.2L804.6,256.7L804.3,255.8L802.4,255.0L802.6,253.7L800.8,254.1L801.0,255.7L801.1,257.7L799.5,257.9L799.1,256.2L798.7,254.9L796.7,253.9L797.8,253.0L798.2,251.9L799.5,249.8L802.4,248.2L804.4,248.6L807.8,248.8Z M800.8,264.3L797.2,263.3L799.7,263.1L801.1,263.5L801.9,264.3Z M803.6,261.9L805.4,261.8L807.7,261.3L807.4,262.1L803.3,262.5L799.8,262.3L801.9,261.5L803.6,261.9Z M795.4,261.7L797.0,261.5L794.6,262.4L792.7,262.6L791.3,262.6L792.2,261.8L793.7,261.8L795.4,261.7Z M769.3,258.9L774.8,259.6L780.3,259.7L781.3,260.6L785.3,260.8L788.5,261.7L785.5,262.2L782.6,261.6L780.2,261.7L777.4,261.6L774.9,261.3L771.8,260.8L769.8,260.6L763.9,260.2L761.0,259.5L762.8,258.2L766.0,258.3L768.2,258.8Z M758.3,251.5L758.8,252.5L759.7,253.3L761.7,253.4L763.0,254.3L762.3,256.0L762.2,258.1L759.2,258.2L757.0,257.0L753.6,255.9L752.4,255.0L750.4,253.9L749.1,252.8L747.0,250.9L744.7,249.7L743.9,248.6L742.9,247.5L740.5,246.6L739.1,245.4L737.1,244.6L734.3,243.1L734.1,242.4L735.8,242.4L740.0,242.7L742.3,244.1L744.4,245.0L745.9,245.6L748.4,247.1L751.1,247.1L753.3,248.1L754.9,249.2L756.9,249.9L755.8,251.0L757.4,251.5Z"/><path id="AR" d="M297.0,336.3L299.3,339.1L302.8,340.5L306.5,341.1L302.8,342.5L301.4,341.6L299.8,341.5L297.0,341.5L297.0,336.3Z M326.3,294.1L325.7,295.4L325.0,297.0L325.0,298.7L324.2,300.1L324.0,301.0L327.4,302.4L327.0,303.6L328.7,304.4L326.0,307.5L322.0,308.4L316.7,308.8L313.8,308.6L314.3,309.7L313.8,311.0L314.3,311.9L312.7,312.6L309.9,312.8L307.4,312.2L306.7,314.5L308.5,315.1L310.0,314.5L310.8,315.4L308.3,316.0L306.2,317.2L305.8,319.2L305.2,320.2L302.6,320.2L300.5,321.2L299.8,322.7L302.4,324.2L305.0,324.6L304.0,326.5L300.9,327.7L299.2,330.1L296.7,331.0L296.5,334.3L298.3,335.6L294.7,335.2L288.2,334.9L287.1,333.6L287.2,331.9L285.4,332.0L284.2,329.0L286.3,328.0L287.1,326.7L286.8,325.7L288.2,323.9L289.2,321.2L288.9,320.1L289.8,319.0L289.4,317.8L287.6,314.9L288.2,312.2L288.9,310.4L289.6,308.8L291.2,308.1L290.4,306.4L290.3,304.8L292.4,303.7L292.3,302.2L293.8,300.6L293.8,299.1L291.9,295.9L293.5,294.3L293.3,292.7L294.3,291.3L296.0,289.8L297.9,288.8L297.6,287.7L297.6,285.1L300.5,284.4L301.4,282.8L303.3,281.1L306.8,281.4L308.3,282.5L309.4,281.3L312.4,281.4L317.7,284.2L319.9,284.4L323.2,285.5L325.9,286.1L323.7,289.2L326.4,289.6L329.4,289.8L331.5,289.6L333.9,288.4L334.3,287.0L337.0,287.6L336.9,288.9L334.7,289.7L332.9,290.4L329.9,291.9L326.3,294.1Z"/><path id="CL" d="M297.0,336.3L297.0,341.5L299.8,341.5L301.4,341.6L298.3,343.3L295.4,343.1L293.4,342.3L290.7,342.0L287.3,340.6L284.6,339.4L280.9,336.7L283.1,337.2L286.8,338.8L290.4,339.6L291.8,338.6L292.6,337.0L295.1,336.0L297.0,336.3Z M294.4,274.8L295.7,275.8L296.1,276.9L297.5,277.5L296.6,278.9L298.1,280.6L299.1,282.6L301.0,282.4L300.5,284.4L297.6,285.1L297.6,287.7L297.9,288.8L296.0,289.8L294.3,291.3L293.3,292.7L293.5,294.3L291.9,295.9L293.1,298.8L293.8,300.6L292.3,302.2L292.4,303.7L290.3,304.8L290.4,306.4L291.2,308.1L289.6,308.8L288.9,310.4L288.2,312.2L288.7,314.5L288.2,317.1L288.6,318.6L290.1,319.7L289.2,321.2L288.2,323.9L286.8,325.7L287.1,326.7L286.3,328.0L284.2,329.0L284.5,331.2L287.2,331.9L287.1,333.6L288.2,334.9L294.7,335.2L297.1,335.5L294.8,335.5L291.1,336.9L290.6,339.1L286.5,338.4L283.5,336.7L280.1,335.4L279.3,334.0L280.1,332.7L278.7,331.2L278.4,327.6L279.5,325.6L282.3,324.0L278.3,323.4L280.8,321.6L281.7,318.4L284.7,319.1L286.1,315.1L284.3,314.6L283.5,317.0L281.8,316.7L282.6,314.0L283.5,310.6L284.8,309.4L284.0,307.6L283.8,305.7L286.5,302.8L288.4,300.1L289.5,297.6L288.9,295.2L289.7,293.9L289.4,291.9L290.9,290.0L291.4,287.0L292.3,283.8L293.1,280.4L292.9,278.0L292.3,275.9L293.7,275.6L294.4,274.8Z"/><path id="CD" d="M558.2,256.3L558.7,257.5L558.5,258.3L559.0,259.1L560.5,259.9L562.0,261.6L557.3,261.7L555.9,262.8L556.0,265.1L555.7,266.5L558.2,267.3L559.2,268.6L557.2,268.6L556.1,267.8L553.0,267.0L552.4,266.2L550.8,266.7L548.7,266.5L546.1,265.7L544.7,265.3L542.6,265.2L540.9,265.4L539.1,265.5L539.2,263.8L538.1,262.4L538.5,261.6L537.9,260.2L534.7,260.2L531.8,260.0L531.1,260.8L529.2,260.9L526.6,261.2L525.6,260.5L524.2,259.2L523.5,258.2L515.7,258.2L514.0,258.3L512.5,258.1L513.2,257.3L514.7,256.6L516.3,256.3L517.7,256.3L520.5,256.0L522.0,255.4L522.6,253.8L523.8,252.4L525.0,251.7L526.7,251.0L527.1,250.1L527.4,248.8L527.7,247.6L528.3,246.7L529.1,246.0L529.2,245.1L529.4,244.2L530.5,243.5L531.9,243.0L534.1,243.5L535.8,244.0L537.8,244.1L539.7,244.4L540.5,243.6L542.1,243.6L545.1,242.9L547.0,243.1L548.4,242.7L550.4,242.8L552.1,242.9L554.6,243.9L556.5,243.8L559.2,243.6L562.2,245.1L562.1,246.7L561.2,247.8L560.2,248.5L559.5,250.3L558.9,251.9L558.0,253.1L557.4,253.9L558.2,256.3Z"/><path id="SO" d="M590.9,252.3L589.3,251.2L589.3,246.1L591.6,244.6L594.1,244.1L596.4,243.1L599.9,243.0L607.4,238.8L609.3,237.7L610.5,236.8L610.5,236.1L610.5,234.7L612.6,233.8L614.0,233.7L616.3,233.2L616.1,234.4L616.1,235.1L614.8,237.2L613.5,238.7L611.9,240.5L609.6,242.6L607.3,244.1L604.2,246.0L601.5,247.2L597.5,248.5L595.0,249.6L592.1,251.3L591.5,252.0Z"/><path id="KE" d="M584.5,256.5L580.7,255.1L580.5,254.3L570.9,251.5L570.4,249.8L572.5,248.4L573.4,247.4L572.3,245.8L571.9,245.1L570.7,244.1L572.3,243.3L574.1,242.3L575.5,242.6L575.5,243.4L578.3,243.8L581.7,245.0L583.1,245.0L585.5,245.2L588.7,244.1L591.6,244.6L589.3,246.1L589.3,251.2L590.9,252.3L589.0,252.9L587.4,253.6L587.0,254.6L585.6,256.0Z"/><path id="SD" d="M545.5,238.5L543.5,237.9L542.4,237.1L542.8,235.9L541.3,235.0L541.0,234.1L540.0,232.8L538.5,232.4L539.5,231.3L540.0,230.2L540.2,229.0L541.4,227.9L543.7,228.0L543.6,222.3L546.7,221.6L546.7,218.7L557.4,218.7L567.7,218.7L578.3,218.7L579.2,220.1L579.0,221.9L580.0,223.7L582.4,224.6L581.1,225.4L579.1,225.7L578.0,227.1L576.9,229.2L576.7,231.0L575.6,232.4L574.0,233.1L572.9,234.2L571.4,235.2L570.6,236.6L570.6,237.9L570.6,236.8L570.2,236.1L568.6,235.0L568.2,234.0L568.6,233.0L567.1,233.2L565.5,233.2L566.4,234.5L564.9,235.3L563.6,236.3L562.2,236.5L560.0,235.6L557.3,236.6L554.6,236.9L552.3,236.5L550.6,236.7L549.2,235.8L546.9,235.7L545.4,237.6L543.7,238.0L545.5,238.5Z"/><path id="TD" d="M543.6,222.3L543.7,228.0L541.4,227.9L540.2,229.0L539.5,229.9L539.2,230.7L538.8,231.9L540.0,232.8L540.0,233.7L541.0,234.4L539.3,234.7L537.9,235.2L536.0,236.8L533.5,237.4L530.9,237.3L529.0,238.5L524.5,239.5L522.9,239.6L520.7,239.7L520.3,238.3L518.8,237.5L517.2,236.7L519.0,236.2L521.2,236.1L519.8,234.8L519.9,233.8L519.7,232.9L518.7,232.0L517.2,231.3L517.2,230.4L517.3,227.9L520.7,226.6L520.8,224.7L521.8,221.7L521.3,220.6L520.3,219.7L519.6,217.4L522.3,216.5L532.9,219.4L543.6,222.3Z"/><path id="HT" d="M288.8,222.1L289.0,222.9L288.1,223.7L288.8,224.5L287.0,224.3L284.1,224.3L281.4,224.1L284.1,223.8L286.1,223.9L285.9,223.0L284.2,222.2L286.5,221.8L288.8,222.1Z"/><path id="DO" d="M288.8,224.5L288.1,223.7L289.0,222.9L288.8,222.1L291.2,221.8L292.8,222.2L295.4,222.7L297.8,223.7L295.6,224.0L293.5,224.0L292.0,224.3L289.6,225.2Z"/><path id="RU" d="M956.6,107.3L960.0,105.5L960.0,108.5L957.1,108.7Z M610.9,177.1L609.7,178.3L607.1,178.6L604.5,180.6L606.9,182.5L606.6,183.8L609.6,186.0L608.0,186.7L606.3,187.1L604.5,185.9L602.1,185.4L598.8,184.3L597.1,184.6L593.1,183.3L589.1,183.0L586.9,182.7L583.1,181.3L580.1,180.5L577.8,179.4L579.7,179.1L582.0,177.4L580.5,176.6L584.4,175.8L581.9,175.7L583.4,174.2L586.0,174.0L585.8,172.2L586.9,171.1L582.9,169.7L581.4,169.8L579.7,168.7L577.7,169.1L574.3,168.3L573.4,166.9L571.3,166.8L571.7,165.7L570.0,164.4L567.2,164.6L565.8,165.0L564.1,163.5L566.1,162.6L564.6,161.0L562.0,158.6L562.3,156.8L559.7,156.2L558.3,156.5L555.1,155.3L554.3,153.8L552.8,152.0L553.1,148.7L555.0,147.1L557.6,145.1L554.9,143.8L560.6,140.1L563.0,138.4L564.0,136.9L560.1,134.8L561.2,132.7L558.8,130.3L560.6,127.4L557.5,123.5L559.9,120.8L555.9,118.3L556.2,115.6L558.4,115.3L562.9,113.7L565.7,112.3L570.1,114.7L577.4,115.6L587.4,119.9L589.5,121.6L589.7,124.0L586.7,125.9L582.4,126.8L570.4,124.1L568.5,124.6L572.8,127.1L573.2,132.0L576.6,133.0L578.7,133.8L577.4,130.9L579.1,129.6L585.6,131.7L587.8,130.9L586.0,128.5L592.2,125.1L594.7,125.3L597.2,126.5L598.8,124.1L596.5,122.0L597.8,119.8L595.9,117.5L603.3,118.7L604.9,120.8L601.5,121.2L601.5,123.3L603.6,124.5L607.7,123.7L608.4,121.4L613.9,119.7L623.2,116.4L625.3,116.6L622.6,118.9L625.9,119.3L627.8,118.0L632.8,117.9L636.8,116.3L639.8,118.6L642.9,116.1L640.1,113.8L641.5,112.5L649.3,113.7L653.0,115.0L662.7,119.3L664.5,117.3L661.8,115.3L658.5,114.1L657.9,109.0L662.8,103.7L664.5,99.5L666.5,98.5L673.6,99.8L674.1,102.4L671.6,106.0L673.3,107.4L674.1,110.3L673.5,115.8L676.4,118.1L675.3,120.6L670.1,125.7L673.1,126.2L677.1,124.0L680.1,120.5L678.6,118.4L679.8,115.9L676.9,115.6L676.3,113.4L678.4,109.3L674.9,105.8L679.7,102.8L679.1,99.5L681.8,102.0L680.8,106.3L683.6,107.1L682.4,103.9L686.9,102.2L692.4,101.9L697.3,104.5L695.0,100.7L694.7,95.6L699.3,94.6L705.7,94.8L711.5,94.2L709.4,91.5L712.4,88.0L715.5,87.9L720.7,85.1L727.7,84.4L735.6,82.3L737.8,83.6L743.8,80.5L748.7,80.6L752.0,75.4L758.3,72.7L762.8,74.8L759.2,76.4L765.3,77.3L768.4,78.8L776.2,78.9L782.2,81.8L784.4,84.0L783.7,86.9L780.7,88.5L773.7,91.4L771.7,92.9L775.0,93.6L779.0,94.9L781.4,94.0L782.7,97.1L788.2,95.1L796.7,95.9L808.5,98.9L808.7,95.2L814.3,96.0L818.6,96.0L822.9,98.6L824.1,101.5L822.6,103.5L825.9,106.9L830.1,108.6L832.7,104.1L837.0,106.1L841.5,104.9L846.7,106.2L848.6,105.0L853.0,105.6L851.1,101.5L854.6,99.5L878.7,102.5L880.9,105.1L887.9,108.4L898.7,107.6L904.0,108.3L906.2,110.0L905.9,113.0L909.2,114.2L912.7,113.3L917.5,113.2L922.5,114.0L927.6,113.6L932.2,117.0L935.5,115.8L933.4,113.3L943.1,112.6L948.6,112.4L956.3,114.3L960.0,116.0L960.0,130.2L956.6,131.6L953.1,131.4L955.5,133.1L957.1,135.7L958.6,137.8L953.0,137.9L945.5,140.1L943.1,140.5L939.1,142.5L935.2,144.3L930.4,143.6L923.5,145.8L919.7,145.9L916.1,145.6L915.2,147.4L912.0,150.0L915.2,151.6L914.8,155.3L912.3,155.4L911.2,157.5L907.7,159.7L906.7,162.4L902.7,163.0L901.9,165.3L898.1,167.4L897.1,165.8L896.0,162.5L894.5,157.2L895.8,153.8L898.0,152.2L902.3,150.4L907.1,147.1L911.7,144.2L916.5,142.0L918.6,137.8L915.4,138.1L913.8,140.5L907.0,143.7L904.8,140.1L897.9,141.1L891.2,145.9L893.5,147.5L887.5,148.2L883.4,148.5L883.6,146.6L879.4,146.2L876.1,147.5L868.0,147.0L859.2,147.8L850.6,153.0L840.3,158.8L844.5,159.1L845.8,160.6L848.4,161.1L850.1,159.9L853.1,160.1L856.9,162.7L857.0,164.6L854.9,166.9L854.7,169.5L853.5,172.9L849.5,175.9L848.6,177.3L845.0,179.6L841.4,181.8L839.7,183.0L836.1,184.1L834.4,184.1L832.7,183.2L829.2,184.6L830.1,181.6L829.4,179.9L831.7,179.2L834.9,179.6L836.7,177.6L837.6,175.4L840.1,172.8L835.7,173.4L833.4,174.2L829.3,174.2L828.2,172.3L825.1,170.8L820.4,170.1L819.4,168.0L818.5,166.6L815.9,163.4L813.5,162.5L809.5,161.8L806.0,161.9L802.7,162.3L800.5,163.4L801.9,164.0L802.0,165.2L800.5,166.0L798.1,168.3L794.3,170.6L791.1,169.8L788.0,170.0L786.6,169.3L785.0,169.0L781.1,170.6L777.5,170.9L775.1,171.4L771.7,171.1L769.3,171.1L767.6,170.0L765.0,169.0L762.4,168.7L759.0,169.0L756.5,169.4L752.7,168.5L752.2,166.8L749.0,166.2L746.6,166.0L743.6,165.1L740.9,167.4L742.0,168.7L739.4,170.2L735.5,169.6L732.8,169.5L731.1,168.5L728.3,168.5L726.0,167.8L721.9,168.9L716.8,170.7L714.0,171.1L711.5,169.9L708.1,170.2L705.1,168.9L703.8,167.6L702.4,167.2L698.5,167.8L694.8,166.5L693.4,167.7L687.5,161.9L684.1,160.1L678.4,161.6L675.8,161.7L676.0,160.5L672.6,159.6L669.8,160.2L669.0,157.7L664.2,157.2L661.8,158.2L655.1,159.1L643.8,160.5L644.5,162.9L642.0,163.5L639.9,165.2L644.2,166.8L639.8,167.7L635.6,167.2L631.4,167.3L628.6,168.2L625.4,167.3L619.5,165.8L615.4,165.8L609.9,168.3L609.5,169.8L606.8,168.6L604.7,171.0L603.9,173.0L606.2,174.4L608.2,174.3L609.9,175.7L609.6,176.8L610.9,177.1Z M730.1,47.5L735.8,45.5L741.0,49.9L747.2,57.9L746.5,64.6L740.7,65.5L733.3,63.4L728.8,60.6L726.8,55.0L723.1,53.4L730.1,47.5Z M754.2,61.7L761.0,65.8L745.2,71.3L750.0,62.0L752.2,61.2L754.2,61.7Z M850.2,82.3L857.3,82.6L866.9,85.6L864.8,89.6L855.0,89.5L850.5,90.7L845.3,87.2L846.7,83.4L850.2,82.3Z M875.3,86.8L882.0,88.2L878.9,90.3L874.6,89.8L869.7,87.7L875.3,86.8Z M853.0,97.0L855.5,95.0L858.8,94.6L862.6,96.5L858.9,97.8L853.4,97.2Z M599.6,51.3L604.8,49.7L608.8,49.6L610.9,49.9L613.4,48.4L617.4,50.3L612.8,52.7L610.4,53.4L606.9,56.0L604.0,54.1L605.5,51.5L599.6,51.3Z M540.6,159.8L535.7,159.8L532.4,159.5L536.7,157.7L539.5,158.1L540.6,159.8Z M622.7,95.1L629.1,90.6L634.3,85.3L643.1,81.6L652.0,80.5L656.6,78.3L661.8,77.5L663.6,79.9L661.8,81.7L652.4,84.6L644.2,87.2L635.9,92.3L632.0,97.1L627.8,101.7L628.3,105.4L633.4,108.9L631.9,109.3L623.1,108.7L617.6,105.7L617.2,103.3L619.9,102.3L619.9,99.8L625.1,95.7L622.7,95.1Z M861.1,161.2L862.0,163.5L862.0,165.7L863.1,167.9L865.7,171.8L861.8,171.1L860.2,174.1L862.8,176.2L862.7,177.6L860.7,176.4L858.9,177.9L858.4,176.3L858.7,174.3L858.4,172.0L859.0,170.4L859.1,167.5L857.6,165.3L857.8,162.2L860.3,161.1L860.4,159.7L861.1,161.2Z M13.5,122.6L13.3,124.8L15.1,125.6L14.5,123.1L21.7,123.6L26.9,126.8L24.3,128.3L19.9,128.7L19.9,131.9L16.3,132.4L14.3,131.3L10.7,130.4L7.4,128.4L4.4,128.8L2.9,127.7L0.3,127.2L0.0,130.2L0.0,116.0L6.5,118.9L13.5,122.6Z M3.5,108.2L0.0,108.5L0.0,105.5L2.6,105.3L6.5,106.6L3.5,108.2Z M569.2,177.9L571.8,177.9L573.4,178.4L577.4,178.9L574.0,180.0L570.4,181.1L568.9,180.7L566.5,179.2L569.6,178.2Z"/><path id="BS" d="M269.4,211.4L272.4,211.3L269.6,211.9Z M272.6,211.0L274.7,211.7L274.2,212.8L273.8,211.8L272.6,211.0Z M271.5,213.8L273.2,215.1L273.2,216.0L271.9,215.2L271.5,213.8Z"/><path id="FK" d="M316.8,334.5L320.0,333.2L322.3,333.7L323.9,332.8L326.0,333.8L321.6,335.3L318.1,335.5Z"/><path id="GL" d="M355.3,31.8L364.2,25.0L373.6,25.6L377.0,21.1L386.4,19.9L407.7,21.5L424.4,30.7L419.5,34.8L409.3,35.3L394.9,36.3L396.3,38.1L405.7,37.0L413.7,40.4L418.9,37.4L421.1,40.9L418.2,46.3L425.0,42.9L438.0,39.2L445.9,41.1L447.4,45.1L436.6,51.4L435.1,53.3L426.5,54.7L432.7,55.1L429.6,60.8L427.5,65.5L427.5,73.1L430.7,77.2L426.6,77.5L422.2,79.4L427.1,82.5L427.7,87.3L424.9,87.8L428.3,92.3L422.4,92.7L425.5,94.8L420.9,97.3L417.2,97.3L420.5,100.5L415.3,100.6L413.9,101.9L417.5,103.0L421.0,105.7L422.0,109.2L417.2,110.0L415.2,108.3L411.9,105.9L412.8,108.8L409.7,111.0L416.7,111.1L420.4,111.4L413.3,114.9L406.0,117.9L398.2,119.2L395.3,119.2L392.5,120.6L388.8,124.4L383.1,126.8L381.2,127.0L377.7,127.8L373.8,128.6L371.5,130.6L371.5,132.9L370.2,135.0L365.8,137.4L366.9,139.8L365.7,142.2L364.3,144.9L360.6,145.1L356.6,142.8L351.3,142.8L348.7,141.2L346.9,138.3L342.3,134.5L341.0,132.5L340.6,129.5L336.9,126.4L337.9,123.9L336.1,122.6L338.7,118.3L342.7,116.9L344.3,112.2L341.3,113.6L339.8,114.2L337.4,114.8L334.2,113.5L334.0,110.7L335.0,108.5L337.5,108.4L343.0,109.6L338.4,106.9L336.0,105.4L333.3,106.0L331.1,104.9L334.1,100.7L332.5,98.9L330.3,95.6L327.1,90.2L323.7,88.1L316.6,82.5L311.0,82.1L303.8,82.3L297.3,82.7L294.2,80.9L289.6,77.1L296.6,75.1L302.0,74.8L290.6,73.1L284.5,70.4L295.0,64.4L304.8,60.8L298.6,55.2L300.9,51.9L310.2,45.8L314.0,44.8L319.2,38.0L327.4,36.4L335.6,36.3L338.6,39.4L345.6,33.8L352.0,37.7L355.7,38.4L361.3,41.6L354.9,36.3Z"/><path id="TF" d="M663.8,327.5L665.5,328.2L668.1,328.4L667.4,329.8L663.3,329.9L663.3,328.8L663.8,327.5Z"/><path id="TL" d="M813.2,262.4L815.9,261.8L817.7,261.7L819.6,261.7L815.8,262.7L813.6,263.1L813.2,262.4Z"/><path id="ZA" d="M523.6,291.4L525.9,291.1L527.6,291.9L529.2,292.2L530.7,292.1L533.1,291.3L533.1,285.5L535.4,287.2L535.1,288.2L537.6,288.5L538.9,287.9L540.9,286.6L543.3,286.5L546.7,287.0L548.4,286.6L549.2,285.4L550.6,285.3L552.3,283.7L554.7,282.6L558.5,281.5L560.9,281.7L563.2,281.7L564.5,283.8L565.1,284.9L564.7,286.6L562.8,287.0L561.8,288.0L563.4,289.4L565.0,289.2L567.5,288.6L566.9,289.7L566.6,291.0L564.1,292.5L562.4,293.6L561.7,294.4L560.1,295.6L557.1,297.2L555.3,298.2L553.2,299.0L550.5,299.6L549.1,299.7L547.1,299.9L542.9,299.9L541.3,300.1L537.4,300.7L535.2,301.0L533.5,301.6L531.2,301.0L529.1,300.3L528.7,299.1L527.8,298.0L528.6,296.4L526.8,294.9L525.5,293.5L523.6,291.4Z"/><path id="LS" d="M557.3,292.0L557.4,293.3L555.4,294.1L554.0,294.8L552.0,293.5L553.4,292.5L554.9,291.9L557.3,292.0Z"/><path id="MX" d="M167.7,202.2L170.7,202.0L174.1,201.9L177.9,203.0L183.9,204.1L189.2,204.1L191.4,204.1L196.0,203.4L198.3,204.5L199.9,205.3L200.8,206.1L201.4,207.0L202.8,207.5L205.0,207.9L206.7,206.7L208.9,206.6L210.8,207.3L212.1,208.4L213.0,209.3L214.6,210.2L215.2,211.3L218.0,212.5L219.9,212.8L219.9,214.1L219.5,215.2L219.3,217.3L219.5,218.8L220.8,220.7L222.6,221.8L223.2,222.6L227.1,223.8L230.5,224.0L232.6,223.8L234.6,223.5L236.2,223.3L237.9,222.7L238.6,221.8L238.8,220.6L241.1,219.8L243.9,219.4L246.2,219.5L247.9,219.3L248.4,220.4L247.0,221.3L246.3,222.2L246.4,223.1L245.8,224.2L244.0,223.9L243.1,224.7L239.8,224.8L237.3,224.8L237.3,225.7L238.1,226.5L238.8,227.4L235.3,227.4L234.1,228.6L234.1,229.6L231.0,228.0L229.7,227.6L227.5,227.2L226.0,227.3L223.9,227.8L222.5,228.0L220.6,227.6L218.6,227.3L216.1,226.7L214.1,226.5L211.1,225.8L208.9,225.1L206.7,224.6L204.0,224.2L200.0,222.6L198.7,221.7L198.9,220.9L199.3,220.0L198.4,218.9L197.3,217.5L194.9,216.0L192.2,214.8L190.9,213.9L188.6,213.2L188.6,211.9L187.2,211.5L185.6,210.8L185.0,209.7L183.5,209.6L182.0,208.7L180.6,207.5L179.2,206.3L178.2,205.0L176.3,203.8L173.9,203.4L173.9,204.8L174.2,206.0L177.1,207.8L178.3,208.8L179.3,209.8L180.7,210.8L182.4,211.6L183.2,213.0L184.8,214.4L184.9,215.2L187.3,215.9L188.2,216.9L186.6,217.4L185.9,216.5L184.1,215.6L182.2,214.9L180.8,214.5L180.9,213.4L180.5,212.6L177.4,211.4L174.8,210.8L173.2,209.9L175.5,209.3L173.5,207.4L172.0,207.0L171.0,206.0L170.0,204.9L168.7,203.6L167.7,202.2Z"/><path id="UY" d="M326.3,294.1L328.1,293.9L330.7,295.1L334.5,296.1L336.6,297.0L338.1,298.1L337.7,299.9L336.5,300.9L333.5,301.9L331.5,301.5L330.1,301.7L327.6,301.0L325.8,301.0L324.2,300.1L324.4,299.0L325.0,297.0L325.7,295.4L326.3,294.1Z"/><path id="BR" d="M337.7,299.9L336.9,298.9L336.6,297.0L334.5,296.1L331.7,295.1L328.1,293.9L326.3,294.1L329.9,291.9L332.9,290.4L334.7,289.7L336.9,288.9L337.0,287.6L335.7,286.7L335.2,285.2L335.2,284.4L333.3,284.4L331.7,282.3L329.4,281.5L325.5,281.5L325.7,279.4L324.9,278.6L325.5,277.5L326.7,275.7L326.0,274.8L324.6,274.4L324.7,272.9L319.6,272.9L318.6,271.2L318.8,270.1L318.7,269.3L317.1,268.9L315.4,268.9L312.5,268.2L308.5,267.4L305.6,266.2L305.8,265.2L305.8,263.6L302.3,263.9L300.9,264.4L298.5,265.0L296.6,265.4L294.6,265.3L293.1,265.5L292.0,263.2L289.9,264.1L287.5,264.0L286.5,263.3L284.7,263.2L283.8,261.7L282.7,260.5L283.4,259.6L285.0,259.2L284.7,258.5L285.6,257.3L288.7,256.4L290.9,256.1L293.6,256.0L294.8,252.2L294.5,250.8L293.3,249.2L294.8,249.0L293.8,247.6L299.0,247.6L300.6,247.6L301.2,248.4L303.1,249.0L305.2,248.9L307.7,248.2L309.1,247.3L311.0,246.9L308.6,246.5L308.2,245.7L308.4,244.7L311.8,244.8L314.4,244.2L317.4,243.7L318.0,242.8L319.4,242.7L319.7,243.6L321.2,244.5L320.1,246.2L320.8,246.9L322.6,248.2L324.2,248.0L326.2,247.7L328.6,247.4L330.7,247.5L330.7,246.5L333.1,246.5L334.6,246.8L336.6,246.7L338.8,247.0L340.7,245.5L342.2,244.2L343.8,244.9L345.3,247.4L346.7,247.6L346.8,248.5L344.8,249.7L350.3,250.3L350.4,251.7L352.5,250.8L355.8,251.3L360.3,252.2L361.6,253.0L361.1,253.7L364.2,253.3L369.4,254.0L373.4,254.0L377.3,255.1L380.7,256.7L382.8,257.1L385.1,257.2L386.9,259.4L387.4,260.2L386.3,262.5L385.0,263.5L381.2,265.4L379.5,267.0L377.5,268.3L376.1,269.3L376.3,272.0L375.6,274.3L375.3,275.2L374.0,277.8L371.3,279.7L370.8,281.2L368.7,281.9L368.0,282.8L365.1,282.8L360.9,283.4L359.1,284.0L356.1,284.5L352.9,285.7L350.7,287.2L350.3,288.4L350.7,289.2L350.2,290.8L347.8,292.5L344.8,295.3L342.5,296.6L340.7,297.4L339.4,298.9L337.7,299.9Z"/><path id="BO" d="M294.6,265.3L296.6,265.4L297.9,265.4L300.9,264.4L302.3,263.9L305.8,263.6L305.5,264.7L305.6,266.2L308.5,267.4L311.5,267.7L314.3,268.5L317.1,268.9L318.7,269.3L318.8,270.1L319.3,271.2L319.6,272.9L324.7,272.9L324.3,273.8L326.0,274.8L326.7,275.7L326.2,276.8L325.7,278.3L322.4,277.4L319.9,277.4L315.2,277.8L314.0,279.1L313.9,279.9L312.8,281.7L309.4,281.3L308.3,282.5L306.8,281.4L303.3,281.1L301.0,282.4L299.1,282.6L298.1,280.6L296.6,278.9L297.5,277.5L296.1,276.9L295.7,275.8L294.4,274.8L296.1,273.2L295.0,272.0L295.1,271.0L296.2,269.1L296.3,268.1L294.6,265.3Z"/><path id="PE" d="M293.6,256.0L291.2,255.9L288.7,256.4L285.6,257.3L284.7,258.5L285.0,259.2L283.4,259.6L282.7,260.5L283.8,261.7L285.3,262.6L287.5,264.0L289.9,264.1L292.0,263.2L291.9,265.4L294.6,265.3L296.9,267.6L296.2,269.1L296.1,270.3L295.6,271.5L296.1,273.2L294.4,274.8L293.7,275.6L292.3,275.9L289.7,275.1L284.1,273.0L279.4,271.5L277.3,270.6L276.2,269.4L274.4,267.1L271.8,264.5L269.2,261.7L267.3,260.0L265.2,259.1L263.3,258.5L262.9,256.6L263.7,255.6L265.9,254.7L265.4,255.6L267.7,256.2L268.8,256.9L270.3,256.3L270.8,255.4L272.4,254.2L275.6,253.6L278.5,252.2L279.4,251.3L279.0,250.2L281.5,250.7L283.6,251.8L285.1,253.2L287.1,253.4L288.6,253.0L291.2,253.1L293.2,253.8L291.5,255.2L293.6,256.0Z"/><path id="CO" d="M301.7,248.3L299.9,247.2L293.8,247.6L293.9,248.5L295.4,248.6L293.3,249.2L293.3,250.3L294.9,251.6L293.6,256.0L292.3,255.2L293.2,253.8L291.2,253.1L289.6,253.3L287.1,253.4L285.1,253.2L283.6,251.8L281.5,250.7L279.7,250.1L277.9,249.9L275.8,249.6L273.5,249.5L269.7,248.1L270.2,246.9L272.2,246.3L273.3,245.4L274.3,244.6L273.8,243.5L273.2,242.2L273.4,240.7L272.3,239.9L274.0,238.9L273.4,238.1L275.1,238.0L277.1,237.0L278.7,235.2L280.2,234.5L281.9,234.5L284.2,234.3L286.3,233.6L288.7,232.6L290.3,233.0L288.1,233.8L286.4,234.9L285.3,236.4L284.5,237.2L285.9,237.3L286.8,238.3L286.7,239.4L288.1,240.3L291.5,240.1L293.1,240.3L295.0,241.5L298.0,241.4L299.5,241.3L299.9,242.3L299.1,243.7L299.7,244.7L300.5,245.4L299.2,246.1L300.8,246.9L301.7,248.3Z"/><path id="PA" d="M273.7,237.9L274.0,238.9L272.7,239.3L270.9,238.8L270.3,237.8L267.8,237.5L266.2,238.4L266.7,239.5L264.3,239.9L263.8,239.1L262.1,238.7L260.3,238.4L258.8,238.5L259.0,237.7L258.8,236.8L260.8,237.2L262.8,237.7L265.3,237.3L266.9,237.0L269.3,236.7L270.7,236.9L272.7,237.5Z"/><path id="CR" d="M259.9,236.7L259.4,237.6L258.9,238.3L257.3,238.2L257.0,237.4L255.2,236.8L253.4,235.9L253.0,236.7L251.6,236.1L251.2,235.4L251.4,234.5L253.6,234.7L255.1,234.6L256.9,234.7L257.6,235.5L259.9,236.7Z"/><path id="NI" d="M256.9,234.7L255.5,234.9L253.6,234.7L251.8,234.3L249.3,233.5L247.6,232.6L246.2,231.9L248.0,231.8L248.7,230.7L250.4,230.3L252.0,230.2L253.5,229.2L255.4,229.3L257.0,229.1L258.2,229.9L257.3,231.0L257.3,232.0L257.0,232.8L256.9,233.7L256.5,234.5Z"/><path id="HN" d="M258.3,228.9L256.1,229.3L254.3,229.4L252.9,229.9L251.5,230.4L249.8,230.7L248.7,231.4L247.2,231.8L246.1,230.7L244.0,230.6L242.5,229.9L242.1,229.1L243.5,228.4L245.0,227.9L246.4,227.7L248.3,227.8L250.3,227.6L252.1,227.6L254.6,227.7L256.6,228.3L258.3,228.9Z"/><path id="SV" d="M241.7,229.8L243.1,230.2L245.2,230.4L245.9,231.2L244.0,231.6L242.0,231.1L240.5,231.0L240.7,230.2Z"/><path id="GT" d="M234.1,229.6L234.4,228.8L235.3,227.4L238.8,227.4L238.1,226.5L236.1,225.7L237.3,224.8L239.8,224.8L242.3,224.9L242.3,226.0L242.1,227.6L243.7,227.9L242.3,228.8L241.7,229.8L239.8,230.5L238.4,230.5L236.7,230.5L234.1,229.6Z"/><path id="BZ" d="M242.3,224.9L244.0,223.9L244.6,225.1L244.5,225.8L244.4,226.7L242.9,227.6L242.3,226.0L242.3,224.9Z"/><path id="VE" d="M318.0,242.8L317.4,243.7L314.4,244.2L312.5,244.4L309.6,244.4L307.7,244.2L308.2,245.7L308.6,246.5L310.9,246.7L309.1,247.3L307.7,248.2L305.7,248.5L303.1,249.0L301.7,248.3L300.8,246.9L299.2,246.1L300.5,245.4L299.7,244.7L299.1,243.7L299.3,242.7L300.4,241.5L298.0,241.4L296.0,241.4L293.1,240.3L291.5,240.1L288.1,240.3L286.7,239.4L286.8,238.3L285.9,237.3L284.5,237.2L285.3,236.4L285.6,235.4L287.4,234.5L289.8,233.5L288.1,234.0L289.0,235.4L287.8,236.2L288.8,237.3L290.6,236.2L289.6,234.7L292.9,234.1L293.5,233.0L294.4,234.0L296.3,234.0L298.0,234.8L300.5,235.3L303.4,235.1L304.9,235.8L307.0,235.9L308.5,235.5L311.8,235.0L315.0,235.0L312.7,235.4L315.8,236.2L317.8,236.9L318.2,238.0L319.6,238.0L318.5,239.2L319.2,240.2L316.9,240.7L316.2,241.7L318.0,242.8Z"/><path id="GY" d="M329.2,247.4L327.1,247.3L325.0,247.9L322.6,248.2L320.9,247.5L320.1,246.2L320.5,245.0L320.6,243.9L320.1,243.0L318.0,242.8L316.2,241.7L316.9,240.7L318.5,240.5L318.3,239.7L320.6,238.3L322.4,238.9L324.0,239.8L324.1,240.5L326.6,241.2L327.2,242.9L325.6,243.3L325.2,244.4L326.4,245.4L327.6,246.2L329.2,247.4Z"/><path id="SR" d="M334.6,246.8L333.1,246.5L330.7,246.5L330.7,247.5L329.2,247.4L327.6,246.2L327.2,245.4L325.2,244.4L325.7,243.6L327.2,242.9L327.6,241.7L330.8,242.0L333.2,241.6L336.1,242.0L334.7,243.2L334.9,244.1L336.0,245.0L335.3,246.2Z"/><path id="FR" d="M342.2,244.2L340.7,245.5L339.8,246.5L337.6,247.1L335.8,247.1L335.3,246.2L336.0,245.0L334.9,244.1L334.7,243.2L336.1,242.0L339.0,242.5L341.8,243.7Z M496.5,170.7L501.6,171.7L500.2,173.1L499.9,174.6L498.0,174.8L496.1,176.4L498.2,177.9L498.9,179.2L498.7,181.3L500.1,181.6L497.4,183.5L492.2,183.0L488.3,183.6L488.0,184.7L484.9,185.0L481.9,184.1L476.0,183.7L476.3,181.8L476.8,177.9L474.1,175.7L472.1,174.7L468.0,173.9L467.8,172.4L471.2,171.9L475.7,172.5L474.8,170.1L477.4,171.0L483.6,169.3L484.4,167.5L486.7,167.1L488.3,167.9L491.4,169.8L492.8,169.6L495.1,170.6L496.5,170.7Z M503.3,184.4L505.0,183.7L505.5,185.3L504.6,186.8L502.8,185.1Z"/><path id="EC" d="M279.0,250.2L279.4,251.3L278.5,252.2L275.6,253.6L272.4,254.2L270.8,255.4L270.3,256.3L268.8,256.9L267.7,256.2L265.5,256.2L266.2,255.3L267.3,253.7L265.7,253.7L264.1,253.1L264.2,251.5L265.6,250.4L266.6,249.5L267.9,248.6L269.7,248.1L272.4,248.9L275.8,249.6L277.9,249.9Z"/><path id="PR" d="M303.2,223.8L304.6,224.0L302.4,224.6L300.8,224.7L301.1,223.8L303.2,223.8Z"/><path id="JM" d="M273.1,223.9L274.9,224.0L276.4,224.3L274.9,224.8L272.6,224.8L271.1,224.2L272.5,223.8Z"/><path id="CU" d="M260.6,216.9L262.9,217.0L265.0,217.0L267.5,217.5L271.1,217.9L274.3,219.2L275.9,219.8L278.4,220.1L280.2,220.6L282.2,221.2L280.1,221.8L278.3,221.8L276.5,221.7L272.7,221.9L274.4,221.0L271.6,220.5L270.1,219.3L268.6,219.3L266.1,218.9L261.8,218.4L259.3,217.6L257.3,218.4L255.9,218.8L253.4,218.8L254.8,218.4L256.6,217.5L258.0,217.2L260.0,217.0Z"/><path id="ZW" d="M563.2,281.7L561.8,281.6L559.6,281.5L556.8,280.8L554.7,280.6L553.9,279.6L549.8,277.3L548.9,276.5L547.4,275.0L550.4,275.2L552.1,275.3L553.6,274.4L555.9,273.2L558.7,272.0L560.7,271.8L563.1,272.3L564.9,273.0L567.6,273.5L567.6,275.4L567.1,276.4L567.0,277.5L567.1,278.8L566.0,280.0L563.2,281.7Z"/><path id="BW" d="M558.5,281.5L554.7,282.6L552.3,283.7L551.4,284.7L549.2,285.4L548.4,286.6L546.7,287.0L544.6,286.9L542.2,286.3L540.2,287.4L537.6,288.5L535.7,288.7L535.4,287.2L533.8,285.8L533.1,281.1L535.7,281.1L535.8,275.8L537.7,275.7L541.9,275.2L544.6,275.3L546.9,274.9L548.4,276.2L549.8,277.3L552.8,278.9L554.7,280.6L556.8,280.8L558.5,281.5Z"/><path id="NA" d="M533.1,285.5L533.1,291.3L530.7,292.1L529.2,292.2L527.6,291.9L525.9,291.1L523.6,291.4L521.6,290.3L520.6,289.1L520.0,287.6L519.3,286.5L518.4,284.1L518.4,282.3L518.0,281.5L515.6,279.7L514.2,277.9L513.6,277.0L511.5,275.5L511.3,274.4L514.2,273.9L515.9,273.9L517.5,274.6L528.7,274.4L530.5,275.1L537.0,275.3L541.9,274.7L544.1,274.4L545.8,274.5L545.4,275.3L542.9,275.8L537.7,275.7L535.8,275.8L535.7,281.1L533.1,281.1L533.1,285.5Z"/><path id="SN" d="M435.4,230.9L434.3,229.8L434.2,229.0L435.5,228.0L436.1,227.3L438.3,226.9L441.1,226.6L444.2,227.4L445.8,228.5L447.5,229.5L447.7,230.4L448.2,231.2L449.4,232.1L447.5,232.5L444.8,232.4L438.5,232.3L436.9,232.4L435.5,232.7L435.1,231.6L437.5,231.6L439.6,231.1L441.9,231.4L442.5,230.7L440.8,230.9L438.9,230.6L435.4,230.9Z"/><path id="ML" d="M449.3,232.6L449.2,231.6L447.7,230.4L447.5,229.5L448.9,228.4L451.6,228.7L453.1,228.4L454.5,228.2L465.2,228.2L465.8,227.2L464.1,220.7L462.8,214.2L466.9,214.2L475.9,217.5L484.9,220.7L487.2,221.9L488.4,223.0L491.4,222.9L491.4,226.2L489.9,227.2L489.7,228.1L487.3,228.3L483.7,228.5L481.0,229.0L479.3,229.0L477.2,229.0L474.7,229.6L472.1,230.6L470.6,231.3L468.6,231.5L468.2,232.4L466.1,233.6L465.4,234.7L465.6,235.5L463.9,235.9L462.2,235.4L459.7,235.8L457.8,235.3L457.1,234.4L456.6,233.5L455.1,232.7L453.6,233.1L451.8,233.3L449.9,233.1Z"/><path id="MR" d="M434.5,220.2L445.5,219.7L445.0,217.5L445.7,216.7L448.2,216.6L448.1,212.7L456.8,212.8L456.8,210.4L466.9,214.2L462.8,214.2L464.1,220.7L465.4,227.0L465.2,228.2L454.5,228.2L453.1,228.4L451.6,228.7L449.7,228.3L448.4,229.2L445.8,228.5L444.2,227.4L442.4,227.0L439.6,226.6L437.0,226.8L436.6,225.8L436.9,224.4L436.6,223.0L436.6,221.5L434.5,220.2Z"/><path id="BJ" d="M487.2,241.3L485.0,241.5L484.3,240.5L484.4,237.3L483.8,236.3L482.1,235.4L482.4,234.6L483.9,233.9L485.7,233.3L487.6,232.9L489.6,233.7L490.1,235.0L489.9,236.0L488.6,236.8L487.3,238.1L487.3,239.0L487.2,241.3Z"/><path id="NE" d="M519.6,217.4L520.3,219.7L521.3,220.6L521.8,221.7L520.8,224.7L520.7,226.6L517.3,227.9L516.1,229.8L517.2,231.3L518.9,231.3L517.9,232.1L515.5,231.0L512.8,231.7L510.7,231.3L509.3,231.2L507.0,231.4L505.4,232.0L504.0,232.0L500.8,231.3L498.2,231.6L494.5,230.6L491.6,230.7L490.6,231.9L489.6,233.7L487.6,232.9L485.7,233.3L485.8,232.3L482.7,232.0L481.1,230.4L481.0,229.0L482.7,229.0L487.3,228.3L489.7,228.1L489.9,227.2L491.4,226.2L491.4,222.9L495.1,222.2L502.9,219.3L512.0,216.4L516.2,217.1L517.7,217.9L519.6,217.4Z"/><path id="NG" d="M487.2,241.3L487.3,239.0L487.3,238.1L487.8,237.3L489.9,236.0L490.1,235.0L489.5,234.2L489.8,232.4L491.0,231.0L494.5,230.6L497.2,231.1L499.5,231.6L504.0,232.0L505.4,232.0L507.0,231.4L508.5,231.4L510.7,231.3L512.8,231.7L514.9,230.9L517.3,232.6L518.9,233.1L518.4,233.8L516.2,234.9L515.5,235.8L515.1,236.5L514.0,237.8L512.6,238.4L512.2,239.1L511.3,240.3L509.5,240.8L508.0,240.2L505.4,241.0L503.4,242.4L502.7,243.4L499.9,243.9L497.9,244.1L495.7,244.1L494.3,243.2L493.4,242.2L491.5,241.3L489.5,241.3L487.2,241.3Z"/><path id="CM" d="M518.7,232.0L519.7,232.9L519.9,233.8L519.8,234.8L521.2,236.1L519.8,236.1L517.8,236.0L518.8,237.5L520.3,238.3L521.2,239.3L519.4,241.1L518.6,242.4L518.6,243.4L519.9,244.1L521.1,245.4L522.4,246.4L522.5,247.6L520.4,247.3L518.2,246.9L514.9,246.9L513.0,247.0L511.3,246.8L505.7,246.8L506.1,245.7L505.1,244.8L503.3,243.9L503.4,242.4L504.6,241.0L507.0,240.2L509.5,240.8L511.3,240.3L512.2,239.1L512.6,238.4L514.0,237.8L514.5,236.9L515.5,235.8L516.2,234.9L518.4,233.8L518.9,233.1L517.9,232.1Z"/><path id="TG" d="M482.4,234.6L482.1,235.4L483.8,236.3L484.4,237.3L484.3,240.5L485.0,241.5L482.8,241.8L481.5,240.4L481.9,238.4L481.0,236.8L481.0,235.8L479.9,235.0L482.4,234.6Z"/><path id="GH" d="M480.1,234.6L481.0,235.8L481.0,236.8L481.2,237.9L481.3,239.7L482.2,241.3L478.6,242.6L477.2,243.0L474.8,243.5L472.4,243.1L471.3,241.3L472.0,239.7L473.2,238.5L472.5,236.5L472.1,235.5L472.2,234.7L476.8,234.6L478.8,234.5Z"/><path id="CI" d="M458.6,235.7L461.7,235.8L463.5,235.3L465.6,235.5L467.3,236.3L469.4,236.2L472.5,236.5L473.2,238.5L472.0,239.7L471.3,241.3L472.5,242.5L471.2,243.1L469.3,242.8L467.6,242.8L464.4,243.1L462.6,243.5L459.9,244.0L459.6,242.8L459.8,242.1L457.8,241.4L457.6,240.4L457.5,239.3L457.9,238.4L458.5,236.9L458.1,235.9Z"/><path id="GN" d="M443.5,232.4L446.7,232.7L448.9,232.7L450.6,232.9L452.9,233.4L454.5,232.9L456.3,233.1L457.7,234.1L457.0,234.9L458.6,235.7L458.5,236.9L459.1,238.0L457.9,239.3L456.2,239.8L455.1,239.0L454.0,238.1L452.0,238.4L451.6,237.5L451.1,236.5L448.2,236.0L446.9,236.3L444.7,237.6L443.5,236.8L441.8,236.0L440.8,235.1L440.8,233.9L442.3,233.7L443.4,232.9Z"/><path id="GW" d="M435.5,232.7L436.9,232.4L438.5,232.3L443.5,232.4L443.4,233.5L441.6,233.9L439.7,234.6L438.2,234.0L436.5,233.5L435.5,232.7Z"/><path id="LR" d="M457.5,239.3L457.6,240.4L457.8,241.4L459.8,242.1L459.6,242.8L459.4,243.9L456.0,243.3L453.6,242.2L451.3,241.5L449.5,240.6L450.3,239.7L451.5,238.9L453.3,238.3L455.1,239.0L455.4,239.8L457.5,239.3Z"/><path id="SL" d="M444.7,237.6L446.1,237.0L447.6,236.2L450.4,236.0L451.7,237.1L452.0,237.8L451.5,238.9L450.3,239.7L449.5,240.6L446.9,239.9L445.5,239.1L444.7,237.6Z"/><path id="BF" d="M465.6,235.5L465.4,234.7L466.1,233.6L468.2,232.4L468.6,231.5L470.6,231.3L472.1,230.6L474.2,230.0L477.2,229.0L478.6,228.8L481.0,229.0L481.1,230.4L482.6,231.3L485.8,232.3L485.7,233.3L483.9,233.9L482.4,234.6L480.1,234.6L478.0,234.7L472.2,234.7L472.1,235.5L472.5,236.5L470.6,236.2L468.5,236.6L466.8,235.8Z"/><path id="CF" d="M553.0,242.7L550.4,242.8L548.4,242.7L547.0,243.1L545.1,242.9L542.1,243.6L540.5,243.6L539.7,244.4L537.8,244.1L535.8,244.0L534.1,243.5L531.9,243.0L530.5,243.5L529.4,244.2L529.2,245.1L527.5,245.1L525.7,244.8L524.1,245.6L522.7,246.8L522.3,245.8L520.1,244.6L518.6,243.4L518.6,242.4L518.8,241.3L520.7,239.7L522.9,239.6L524.5,239.5L527.9,239.0L530.4,238.0L533.5,237.4L536.0,236.8L537.9,235.2L539.3,234.7L541.0,234.4L542.8,235.9L542.4,237.1L543.5,237.9L545.5,238.5L547.0,239.1L548.8,240.3L550.6,241.7L552.6,242.3Z"/><path id="CG" d="M529.2,245.1L529.1,246.0L528.3,246.7L527.7,247.6L527.4,248.8L527.5,249.6L527.0,250.6L525.0,251.7L523.8,252.4L522.6,253.8L522.7,254.9L520.5,256.0L518.9,256.9L516.3,256.3L514.7,256.6L512.8,256.4L509.6,255.5L511.6,254.8L510.6,253.8L513.3,253.3L515.0,253.4L517.3,253.4L518.5,251.9L518.2,250.8L516.9,249.9L518.1,248.3L515.4,248.2L514.7,247.5L518.2,246.9L520.4,247.3L522.5,247.6L522.7,246.8L524.1,245.6L525.7,244.8L527.5,245.1L529.2,245.1Z"/><path id="GA" d="M510.1,246.9L513.0,247.0L514.5,246.8L515.4,248.2L517.4,248.1L516.9,249.9L518.2,250.8L518.5,251.9L518.1,252.8L515.0,253.4L513.5,252.7L511.5,253.5L511.6,254.8L509.6,255.5L506.8,254.1L505.1,253.0L503.5,251.5L504.1,250.6L504.8,249.6L505.3,248.6L510.1,248.5L510.1,246.9Z"/><path id="GQ" d="M505.7,246.8L510.1,246.9L510.1,248.5L506.2,248.5L504.8,248.4L505.7,246.8Z"/><path id="ZM" d="M562.0,261.6L564.2,262.2L565.8,262.5L567.4,262.9L569.3,264.7L568.3,266.2L568.8,267.4L567.2,269.2L568.6,269.6L560.5,270.8L560.7,271.8L558.7,272.0L557.2,272.6L553.6,274.4L552.1,275.3L550.4,275.2L547.4,275.0L545.8,274.5L544.1,274.4L541.9,274.7L540.2,273.8L538.4,272.6L538.5,268.1L544.0,268.1L544.2,267.1L544.0,265.7L546.1,265.7L547.8,265.8L550.8,266.7L552.4,266.2L553.0,267.0L555.1,267.2L557.2,268.6L559.2,268.6L559.0,267.0L556.4,266.7L556.0,265.1L556.5,263.4L556.6,261.9L560.9,261.5Z"/><path id="MW" d="M567.4,262.9L570.0,263.1L571.4,264.2L572.2,266.1L571.4,267.2L572.2,269.0L574.0,269.5L575.2,270.5L575.4,272.4L573.4,273.7L571.7,272.8L571.5,271.8L571.9,270.5L570.1,270.3L568.6,269.6L567.2,269.2L568.0,267.9L568.3,266.2L568.8,265.1L568.6,263.5Z"/><path id="MZ" d="M572.2,266.1L574.2,266.0L577.4,266.4L579.9,266.2L582.5,265.8L585.4,265.2L587.5,264.4L587.8,266.5L588.2,267.7L588.3,269.9L587.9,271.7L586.9,272.7L585.2,273.6L582.8,274.1L579.8,274.8L576.8,276.4L573.9,277.7L572.5,279.1L573.8,280.2L574.3,281.1L574.8,282.9L575.0,283.9L573.4,285.1L571.2,285.6L568.0,286.4L567.1,287.6L567.5,288.6L565.5,288.6L564.9,287.2L565.1,284.9L564.5,283.8L563.2,281.7L566.0,280.0L566.7,278.9L567.4,277.9L567.1,276.4L567.6,275.4L567.6,273.5L566.2,273.1L564.4,272.6L560.9,272.3L560.5,270.8L568.6,269.6L570.1,270.3L571.9,270.5L571.5,271.8L571.7,272.8L573.4,273.7L574.2,272.7L575.2,270.5L574.0,269.5L572.2,269.0L571.4,267.2L572.2,266.1Z"/><path id="SZ" d="M565.5,288.6L563.4,289.4L561.8,288.6L562.5,287.5L564.9,287.2L565.5,288.6Z"/><path id="AO" d="M514.7,256.6L513.2,257.3L512.5,258.1L511.8,257.0L513.7,256.2Z M512.9,258.5L514.7,258.3L523.5,258.2L524.2,259.2L525.0,260.1L526.6,261.2L528.4,261.1L530.7,261.1L531.8,260.0L533.4,259.9L534.9,259.7L537.9,260.2L538.0,261.0L538.1,262.4L538.3,263.3L539.1,265.5L540.9,265.4L542.6,265.2L544.0,265.7L544.2,267.1L544.0,268.1L538.5,268.1L538.4,272.6L540.2,273.8L541.9,274.7L537.0,275.3L530.5,275.1L528.7,274.4L517.9,274.5L515.9,273.9L514.2,273.9L512.6,274.1L511.0,273.5L511.4,272.2L512.3,270.9L513.3,269.0L515.5,267.5L516.6,265.8L516.5,265.0L515.0,263.6L514.3,262.8L515.3,261.9L514.5,260.6L513.9,259.6L512.6,258.8Z"/><path id="BI" d="M561.3,253.4L562.0,254.2L561.3,255.0L560.3,255.7L558.2,256.3L558.1,254.6L559.8,253.3L561.3,253.4Z"/><path id="IL" d="M575.3,201.9L573.8,202.2L573.3,203.3L573.1,204.1L573.1,207.1L571.4,204.3L572.7,202.9L573.2,201.7L574.6,201.3Z"/><path id="LB" d="M575.5,200.9L573.7,201.2L574.6,199.9L575.9,198.7L577.6,199.4L576.2,200.0L575.5,200.9Z"/><path id="MG" d="M612.1,267.5L613.5,269.0L613.9,270.7L614.3,272.1L613.0,271.7L613.0,273.2L612.0,274.1L611.8,275.4L610.8,277.1L609.5,279.1L607.8,281.9L606.8,284.0L605.6,285.8L603.4,286.2L601.1,286.8L599.6,286.4L597.4,285.9L596.7,285.1L596.5,283.7L595.6,282.5L595.3,281.4L595.8,280.3L597.1,279.6L598.3,278.5L598.6,277.5L597.4,275.9L597.2,274.6L598.2,273.7L598.5,272.8L601.3,272.5L603.5,272.2L605.0,271.4L607.2,270.5L608.0,269.8L610.3,268.3L610.3,267.5L612.1,267.5Z"/><path id="PS" d="M574.4,203.9L573.8,202.2L574.8,203.4Z"/><path id="GM" d="M435.4,230.9L438.3,230.9L439.8,230.5L441.7,230.9L443.1,231.1L440.8,231.4L438.6,231.4L435.1,231.6Z"/><path id="TN" d="M505.3,205.8L504.1,202.9L502.5,202.2L500.3,200.8L500.1,199.6L501.7,198.6L502.3,197.2L501.9,195.6L502.5,194.7L505.4,194.0L507.2,194.2L507.1,195.1L509.4,194.5L508.3,195.6L509.2,196.9L508.8,198.3L507.1,199.2L507.6,200.1L509.0,200.1L510.6,201.2L510.5,202.4L508.4,203.4L506.5,204.1L506.6,205.4Z"/><path id="DZ" d="M456.8,210.4L456.9,208.1L461.2,207.0L463.8,206.7L466.0,206.3L467.0,205.5L470.2,204.8L470.3,203.6L471.8,203.5L476.5,202.6L476.3,201.6L475.4,199.9L475.2,198.8L474.2,197.8L476.8,196.8L479.7,196.5L481.3,195.8L483.9,195.3L488.4,195.0L492.8,194.8L494.2,195.1L496.7,194.4L499.5,194.4L502.5,194.7L501.9,195.6L502.3,197.2L501.7,198.6L500.1,199.6L500.3,200.8L502.5,201.8L504.1,202.9L505.3,205.8L506.1,207.2L505.8,209.2L505.7,210.8L505.9,211.8L506.4,213.6L507.5,215.1L510.8,215.5L512.0,216.4L502.9,219.3L495.1,222.2L491.4,222.9L488.4,223.0L488.4,222.1L485.5,221.4L475.9,217.5L466.9,214.2L456.8,210.4Z"/><path id="JO" d="M574.8,202.4L578.2,202.5L583.4,200.8L584.5,202.8L578.7,203.8L581.3,205.5L580.0,206.3L578.0,206.5L576.2,207.6L573.2,207.3L574.5,204.5L574.8,203.4L574.8,202.4Z"/><path id="AE" d="M617.5,215.3L620.2,215.4L622.4,215.4L624.0,215.5L625.8,214.4L627.8,213.4L629.5,212.5L630.4,214.2L629.0,214.2L628.8,215.2L628.1,216.4L627.2,217.6L618.7,217.2L617.6,215.6Z"/><path id="QA" d="M615.5,214.5L615.3,213.4L616.0,212.6L617.6,212.9L617.6,213.8L617.0,214.7L615.5,214.5Z"/><path id="KW" d="M607.9,206.3L608.3,207.4L609.1,208.6L607.2,208.6L604.2,207.7L606.1,206.2L607.9,206.3Z"/><path id="IQ" d="M584.5,202.8L583.4,200.8L589.3,199.0L590.4,197.0L590.1,195.7L591.6,195.3L592.9,194.2L597.2,194.2L599.4,194.3L601.1,196.4L602.9,196.9L603.1,197.9L601.7,198.5L601.1,199.8L603.0,201.4L606.2,202.3L607.6,203.5L607.2,204.7L608.0,205.6L609.5,206.4L607.9,206.3L606.1,206.2L604.2,207.7L599.2,207.6L591.7,204.4L587.7,203.2L584.5,202.8Z"/><path id="OM" d="M627.2,217.6L628.1,216.4L629.3,215.4L629.0,214.2L630.4,214.2L631.6,215.3L633.1,215.8L635.0,216.0L636.6,216.3L637.8,217.2L639.5,217.9L638.5,219.1L637.0,220.0L636.0,221.0L634.2,221.3L633.8,222.0L634.1,223.0L632.6,223.2L631.0,223.7L630.1,224.8L628.4,224.7L627.4,225.7L624.6,226.0L622.9,226.5L620.8,225.5L618.7,223.1L626.7,221.6L628.4,218.7L627.2,217.6Z M630.0,213.0L630.3,212.0L630.0,213.0Z"/><path id="VU" d="M925.9,272.4L927.6,273.2L925.8,272.7Z M924.8,272.0L924.3,270.5L926.1,272.1Z"/><path id="KH" d="M753.6,232.9L752.9,231.2L754.6,230.0L758.1,229.8L760.6,230.0L762.8,230.5L764.0,229.5L766.4,230.1L767.0,231.0L766.6,232.7L762.2,233.8L763.3,234.7L760.5,234.8L758.2,235.4L756.0,235.1L754.9,234.4L753.6,232.9Z"/><path id="TH" d="M760.6,230.0L758.1,229.8L754.6,230.0L752.9,231.2L753.6,232.9L751.2,232.3L748.9,232.3L749.3,231.2L746.9,231.2L746.7,232.8L745.3,234.8L744.4,236.1L744.6,237.1L746.3,237.2L747.4,238.4L747.9,239.7L749.4,240.5L751.0,240.6L752.4,241.3L749.7,242.1L749.5,241.4L747.4,240.8L745.8,240.5L744.0,239.0L742.2,239.1L741.7,238.4L742.0,237.5L742.8,236.1L744.1,234.7L745.6,233.4L744.5,232.1L744.3,230.6L742.5,229.5L741.8,228.7L743.7,227.2L742.7,226.3L741.0,225.2L739.7,223.9L742.0,222.1L743.9,222.0L745.4,221.4L747.0,221.0L748.3,222.4L750.1,222.4L749.4,224.0L749.5,225.3L752.3,224.4L754.7,224.6L757.2,224.2L759.2,225.4L759.4,226.8L761.6,228.1L761.5,229.3Z"/><path id="LA" d="M766.4,230.1L764.0,229.5L762.8,230.5L760.6,230.0L761.6,228.1L759.4,226.8L759.2,225.4L757.2,224.2L755.2,224.1L753.1,224.7L749.5,225.3L749.4,224.0L750.1,222.4L748.3,222.4L748.1,221.5L747.5,220.5L749.8,219.5L751.5,219.9L751.1,218.2L752.5,218.0L754.0,219.2L755.2,220.5L758.5,220.5L759.5,221.8L757.8,222.2L760.3,223.6L762.5,225.3L764.1,226.6L766.2,227.6L766.8,228.6L766.4,230.1Z"/><path id="MM" d="M747.0,221.0L745.4,221.4L743.9,222.0L742.0,222.1L740.8,223.7L741.0,225.2L742.7,226.3L743.7,227.2L742.8,228.5L742.5,229.5L744.3,230.6L744.6,231.4L745.6,233.4L744.1,234.7L742.8,236.1L742.6,235.1L743.4,234.0L742.5,233.2L742.7,231.6L741.6,230.9L740.7,229.2L740.3,227.3L739.1,226.1L737.3,226.9L734.3,227.9L732.8,227.8L731.2,227.4L732.1,225.6L731.5,224.3L729.4,222.6L726.3,220.6L726.1,219.4L727.1,218.6L728.2,217.6L728.9,215.5L731.0,215.9L732.1,214.6L733.7,212.6L733.7,211.7L737.1,210.6L739.0,210.9L738.8,209.9L739.5,209.1L741.1,208.9L742.0,209.9L743.2,211.4L743.1,212.7L740.6,214.0L740.3,215.8L743.1,215.6L743.7,216.9L745.4,217.2L744.6,218.5L746.6,219.0L749.7,218.9L747.5,220.5Z"/><path id="VN" d="M758.2,235.4L760.5,234.8L763.3,234.7L762.2,233.8L766.6,232.7L767.0,231.0L766.4,230.1L766.8,228.6L766.2,227.6L764.1,226.6L762.5,225.3L760.3,223.6L757.1,222.7L759.5,221.8L758.5,220.5L755.2,220.5L754.0,219.2L752.5,218.0L753.9,217.6L756.0,217.6L758.6,217.4L760.9,216.6L764.6,217.5L764.2,218.3L768.1,219.3L764.6,220.6L762.4,222.0L761.8,223.0L763.8,224.6L766.3,226.5L768.7,227.4L770.3,228.5L771.6,231.2L771.2,233.7L769.0,234.6L765.9,235.5L763.7,236.7L760.4,238.0L759.5,237.1L760.2,236.2L758.2,235.4Z"/><path id="KP" d="M828.4,184.9L826.6,185.7L825.9,187.7L824.5,188.1L823.0,188.9L821.2,189.2L820.0,190.5L822.3,191.8L820.7,192.3L818.9,192.4L816.6,193.1L815.2,193.0L813.3,193.0L813.3,191.9L814.4,190.4L812.6,189.9L813.5,188.3L816.5,187.3L818.3,186.0L821.9,186.6L821.5,185.6L825.6,184.8L826.7,183.8L828.4,184.9Z"/><path id="KR" d="M816.5,193.3L817.8,193.2L820.7,192.3L822.3,191.8L824.6,193.9L825.2,195.0L825.2,197.0L824.2,197.9L821.8,198.2L819.7,198.9L817.3,199.1L817.0,198.2L817.5,196.9L816.3,195.1L818.3,194.8L816.5,193.3Z"/><path id="MN" d="M714.0,171.1L716.8,170.7L721.9,168.9L726.0,167.8L728.3,168.5L731.1,168.5L732.8,169.5L735.5,169.6L739.4,170.2L742.0,168.7L740.9,167.4L743.6,165.1L746.6,166.0L749.0,166.2L752.2,166.8L752.7,168.5L756.5,169.4L759.0,169.0L762.4,168.7L765.0,169.0L767.6,170.0L769.3,171.1L771.7,171.1L775.1,171.4L777.5,170.9L781.1,170.6L785.0,169.0L786.6,169.3L788.0,170.0L791.1,169.8L789.8,171.4L788.0,173.5L790.2,174.1L792.8,174.4L794.8,173.7L797.0,174.3L799.4,175.8L797.0,176.3L793.1,176.5L791.2,177.1L789.3,178.4L785.2,179.2L782.6,180.2L779.8,179.8L778.3,179.7L776.9,180.9L778.2,182.3L776.3,182.9L774.4,184.0L771.3,184.6L767.3,184.7L763.0,185.4L759.9,186.4L755.5,185.8L751.6,184.6L748.9,184.4L745.4,184.6L739.9,184.2L736.9,184.2L735.4,183.1L734.2,181.3L732.5,181.1L729.3,179.9L725.7,179.6L722.5,179.3L722.6,176.1L720.7,174.4L716.9,173.7L714.7,172.6L714.0,171.1Z"/><path id="IN" d="M739.5,209.1L738.8,209.9L739.0,210.9L737.1,210.6L733.7,211.7L733.7,212.6L732.3,213.9L731.0,215.9L728.9,215.5L728.8,217.1L728.4,218.2L725.7,216.2L724.6,217.2L723.1,216.4L723.9,215.5L726.3,214.2L724.8,213.9L722.3,213.9L719.8,213.7L719.6,212.6L716.2,211.9L715.2,212.9L717.2,213.8L715.5,214.3L716.5,215.3L716.1,216.2L717.0,217.3L717.4,218.6L715.2,219.1L711.9,219.4L712.1,220.5L710.7,221.4L706.8,222.4L703.8,224.1L701.8,225.1L699.2,226.0L697.8,227.0L695.4,227.6L693.4,228.7L694.0,230.6L694.1,231.8L693.0,233.1L693.0,235.5L691.6,235.6L690.4,236.7L688.7,237.5L687.8,238.5L684.2,237.6L683.0,235.6L682.0,234.2L679.6,232.2L679.0,230.4L678.5,229.5L676.1,227.5L675.0,224.7L674.2,222.8L674.2,221.0L673.7,219.6L669.8,220.5L667.9,220.3L664.4,218.5L664.9,217.4L661.8,216.1L663.6,215.1L669.4,215.1L668.9,213.8L667.4,213.0L667.1,211.8L665.4,211.1L668.3,209.5L671.4,209.6L674.2,207.9L675.9,206.3L678.5,204.7L678.4,203.5L680.7,202.6L678.5,201.8L677.6,200.7L676.7,199.2L682.0,198.9L685.0,198.6L687.6,197.2L690.4,199.2L690.2,200.6L691.2,201.4L691.1,202.3L689.2,202.0L690.0,203.8L692.6,204.9L696.3,206.0L694.6,206.7L693.6,208.2L696.2,208.8L698.7,209.6L702.1,210.5L705.8,210.7L707.3,211.5L709.4,211.6L712.6,212.0L714.8,211.9L714.8,210.3L716.6,209.3L716.8,210.6L719.3,211.5L721.0,211.2L723.2,211.3L725.4,211.3L725.6,210.3L729.1,208.5L732.2,207.4L734.4,207.8L736.3,207.2L737.6,208.2L739.5,209.1Z"/><path id="BD" d="M727.1,218.6L727.1,219.7L726.3,220.6L725.6,219.9L725.4,219.1L723.8,217.5L721.3,217.5L720.7,218.9L719.2,218.9L717.4,218.6L717.0,217.3L716.1,216.2L716.5,215.3L714.9,214.9L717.2,213.8L715.2,212.9L716.2,211.9L718.3,212.6L719.8,213.7L722.3,213.9L724.8,213.9L726.3,214.2L725.1,215.4L723.1,216.4L724.6,217.2L725.0,216.2L727.1,218.6Z"/><path id="BT" d="M724.5,209.8L725.4,211.3L723.2,211.3L721.0,211.2L719.3,211.5L716.9,210.9L718.6,209.4L720.0,209.0L721.9,209.4L723.4,209.4Z"/><path id="NP" d="M715.0,209.7L715.1,211.3L712.6,212.0L709.4,211.6L707.3,211.5L705.8,210.7L702.1,210.5L698.7,209.6L696.2,208.8L693.6,208.2L694.6,206.7L696.3,206.0L699.5,206.1L702.2,207.1L703.7,207.4L706.7,208.4L708.9,209.1L711.9,209.5L715.0,209.7Z"/><path id="PK" d="M687.6,197.2L685.0,198.6L682.0,198.9L678.0,198.5L677.6,200.7L678.5,201.8L680.7,202.6L678.4,203.5L678.5,204.7L675.9,206.3L674.2,207.9L671.4,209.6L668.3,209.5L665.4,211.1L667.1,211.8L667.4,213.0L668.9,213.8L669.4,215.1L663.6,215.1L661.8,216.1L659.8,215.7L659.1,214.6L657.0,213.5L652.1,213.8L647.7,213.8L644.0,214.0L645.0,212.2L648.8,211.4L647.3,210.4L647.3,209.1L644.7,208.4L643.7,207.4L642.3,206.6L646.8,207.4L649.5,207.1L651.1,207.3L653.5,207.1L656.9,206.5L657.0,205.1L658.5,204.2L660.5,204.2L662.8,203.5L664.8,203.2L664.7,202.2L665.8,201.2L667.5,200.8L666.5,199.7L669.0,199.8L669.6,198.5L670.7,196.9L671.6,195.5L674.5,195.1L677.5,194.9L678.9,194.6L680.4,194.4L682.4,195.2L683.2,196.5L687.6,197.2Z"/><path id="AF" d="M657.4,194.0L658.9,194.0L660.9,194.4L663.6,194.0L665.4,193.6L667.0,193.6L667.7,192.6L670.3,192.4L670.5,194.5L672.5,194.7L675.4,193.8L677.2,193.9L679.9,193.9L677.5,194.9L674.5,195.1L671.6,195.5L670.0,196.2L671.0,197.8L669.8,199.1L666.5,199.7L667.5,200.8L665.8,201.2L664.7,202.2L664.8,203.2L662.8,203.5L660.8,203.7L658.5,204.2L657.0,205.1L656.9,206.5L653.5,207.1L651.6,207.0L649.5,207.1L646.8,207.4L642.3,206.6L644.7,205.1L644.5,204.1L642.5,203.8L642.3,202.7L641.4,201.4L642.6,200.5L642.1,199.1L643.2,196.9L645.9,197.6L648.0,197.4L650.6,196.3L652.1,195.8L652.7,194.4L654.9,194.1L656.6,193.9Z"/><path id="TJ" d="M660.9,194.4L662.4,192.6L661.8,191.3L659.8,190.8L662.8,190.1L664.0,189.1L664.9,188.0L668.4,187.5L668.3,188.9L665.5,189.1L665.2,190.1L668.1,190.0L671.4,190.6L676.5,190.3L677.1,192.0L679.6,192.2L679.9,193.9L677.2,193.9L675.4,193.8L673.7,194.5L671.6,195.1L670.8,193.0L668.8,192.0L667.4,193.3L665.4,193.6L663.6,194.0L661.7,194.6Z"/><path id="KG" d="M669.2,185.1L671.6,184.0L676.0,184.7L676.4,183.6L677.9,183.2L681.7,184.0L687.1,183.8L691.0,184.0L692.4,184.7L694.0,185.0L689.4,186.4L685.1,187.3L684.1,188.5L681.2,188.3L679.4,188.6L676.9,189.5L671.4,190.6L668.1,190.0L665.2,190.1L665.5,189.1L668.4,189.4L671.4,189.0L674.8,187.7L671.7,186.7L669.8,187.2L667.8,186.5L670.0,185.3Z"/><path id="TM" d="M620.0,186.0L624.2,185.0L626.0,185.5L627.9,187.0L629.2,186.9L632.3,186.9L631.8,185.9L634.1,185.3L636.3,184.2L639.9,185.2L640.2,186.7L644.1,187.0L646.3,189.2L649.4,190.4L651.1,191.3L653.9,192.2L657.5,192.9L657.4,194.0L655.3,193.5L652.7,194.4L652.1,195.8L650.6,196.3L648.5,196.6L645.9,197.6L643.2,196.9L643.0,195.5L641.0,195.4L638.0,193.9L635.8,193.7L632.9,192.8L631.0,192.7L628.0,192.9L626.1,193.9L623.8,194.3L623.3,193.0L623.7,191.2L621.6,190.6L622.3,189.3L620.5,189.2L621.1,187.7L623.6,188.1L626.0,187.6L624.0,186.4L623.3,185.4L621.1,185.9L620.8,187.2L620.0,186.0Z"/><path id="IR" d="M609.5,206.4L608.0,205.6L608.0,204.7L607.6,203.5L606.2,202.3L603.0,201.4L601.1,199.8L601.7,198.5L603.1,197.9L602.9,196.9L601.1,196.4L599.4,194.3L597.9,192.9L597.6,190.3L599.5,189.8L601.2,191.3L603.0,191.6L607.2,190.2L608.9,190.6L609.7,192.4L611.2,193.6L613.7,194.0L615.6,194.8L619.4,195.1L623.5,194.7L626.1,193.9L628.0,192.9L629.8,193.0L632.9,192.8L635.8,193.7L638.0,193.9L641.0,195.4L643.0,195.5L643.2,196.9L642.1,199.1L641.4,200.3L641.4,201.4L642.3,202.7L642.5,203.8L644.5,204.1L644.7,205.1L642.3,206.6L643.7,207.4L644.7,208.4L647.3,209.1L647.3,210.4L648.8,211.4L645.0,212.2L644.0,214.0L639.0,213.5L636.1,213.2L633.1,213.0L631.9,211.1L628.6,211.1L625.9,211.8L622.6,211.3L620.0,210.1L617.4,209.7L615.6,208.2L613.6,206.1L612.2,206.3L610.5,205.8Z"/><path id="SY" d="M575.3,201.9L575.5,200.9L576.2,200.0L577.6,199.4L576.0,198.6L575.7,197.4L577.1,196.3L578.0,194.9L581.8,194.8L583.2,195.1L585.4,195.1L588.5,194.5L589.9,194.5L592.9,194.2L591.6,195.3L590.1,195.7L590.4,197.0L589.3,199.0L583.4,200.8L578.2,202.5L575.3,201.9Z"/><path id="AM" d="M604.0,191.5L602.0,190.5L600.0,189.8L598.4,189.3L596.4,188.8L596.2,187.3L599.9,187.0L601.5,187.8L602.4,188.9L602.8,190.0L604.0,191.5Z"/><path id="SE" d="M509.4,148.3L510.6,146.8L512.8,144.9L513.7,141.5L512.0,140.1L511.8,136.1L513.5,133.1L516.2,133.2L516.1,130.8L520.3,126.1L523.0,122.2L524.7,119.6L527.3,119.6L528.0,117.5L533.0,118.1L533.4,115.6L535.1,115.5L538.6,117.3L542.8,119.9L542.8,125.4L539.2,127.7L536.6,130.0L537.0,132.0L532.7,134.6L527.6,137.2L525.7,141.4L527.6,143.4L530.1,145.0L527.7,148.1L524.9,148.7L523.9,153.1L522.3,155.4L519.1,155.2L517.6,157.2L514.5,157.3L513.7,154.9L511.4,152.0L509.4,148.3Z"/><path id="BY" d="M555.1,155.3L557.9,155.9L559.7,156.2L562.3,156.8L562.0,158.6L563.7,160.2L566.4,161.4L564.0,162.5L564.8,164.9L562.5,165.1L561.5,166.7L558.0,166.6L556.3,166.4L553.2,166.1L550.2,165.5L547.5,165.4L545.5,165.4L544.0,166.0L541.9,164.1L543.5,163.6L542.7,161.8L545.2,160.8L548.1,159.9L548.7,158.5L550.9,157.7L552.3,156.2L555.1,155.3Z"/><path id="UA" d="M564.8,164.9L566.4,164.5L570.0,164.4L571.7,165.7L571.3,166.8L573.4,166.9L574.3,168.3L577.7,169.1L579.7,168.7L581.4,169.8L582.9,169.7L586.9,170.4L585.8,172.2L586.4,173.3L583.4,174.2L582.0,174.7L579.8,175.8L578.0,176.5L575.5,176.6L573.2,177.3L573.4,178.4L571.8,177.9L569.9,177.4L564.7,177.2L562.0,176.7L561.0,177.8L558.9,179.3L556.5,179.3L556.4,178.0L557.5,176.8L559.4,177.2L558.8,176.0L557.5,174.8L556.5,173.6L553.4,172.8L551.6,173.0L549.9,173.3L547.2,174.0L545.1,173.8L543.4,173.8L541.7,173.6L540.4,173.5L538.9,172.9L540.2,171.5L542.5,168.9L544.1,168.0L542.7,166.1L545.5,165.4L547.5,165.4L550.2,165.5L553.2,166.1L555.3,166.1L557.3,166.1L560.4,166.5L562.5,165.1L564.8,164.9Z"/><path id="PL" d="M542.6,160.7L543.5,162.7L541.9,164.1L542.7,166.1L544.1,168.0L542.5,168.9L540.0,170.7L537.6,170.7L535.7,171.0L532.9,171.3L531.5,170.5L529.0,169.6L527.1,169.5L525.0,168.5L523.1,168.7L521.3,167.9L519.0,165.7L518.5,163.7L518.3,162.3L517.7,161.1L519.5,160.4L523.6,159.3L527.0,158.5L529.7,158.9L532.4,159.5L535.7,159.8L540.6,159.8L542.0,160.0Z"/><path id="AT" d="M525.3,173.6L523.6,174.4L523.2,176.2L520.4,176.6L519.0,177.0L516.8,176.9L513.0,176.3L509.8,176.0L507.8,176.1L506.5,176.0L505.6,174.8L507.7,175.2L510.5,174.8L512.4,174.4L514.5,174.9L514.4,173.2L516.3,172.0L518.2,172.6L519.7,171.8L522.7,172.3L525.2,172.6Z"/><path id="HU" d="M538.9,172.9L540.4,173.5L538.9,174.5L537.7,175.9L536.1,177.2L533.9,177.6L532.3,177.5L530.2,178.1L527.0,178.0L525.0,177.1L523.7,176.2L524.1,174.8L525.3,173.6L526.6,174.1L529.9,174.1L532.4,173.3L534.0,173.1L535.5,172.5L538.3,173.1Z"/><path id="MD" d="M551.0,173.3L553.4,172.8L555.4,173.5L557.7,174.1L558.4,175.2L559.8,176.5L557.8,177.1L556.4,178.0L554.8,178.0L555.0,176.2L553.5,175.0L551.8,173.6Z"/><path id="RO" d="M555.3,178.9L557.7,178.9L557.7,180.2L556.2,182.4L554.6,182.2L552.6,181.5L549.5,181.9L544.3,182.3L542.2,182.0L540.4,181.4L539.1,180.9L537.5,180.3L535.7,179.0L533.9,177.6L536.1,177.2L537.7,175.9L538.9,174.5L540.6,174.1L543.4,173.8L545.1,173.8L547.2,174.0L549.2,173.8L551.0,173.3L552.6,174.2L555.0,176.2L554.8,178.0Z"/><path id="LT" d="M550.7,156.6L548.7,158.5L548.1,159.9L545.2,160.8L542.6,160.7L540.6,159.8L540.7,158.5L536.7,157.7L536.1,155.6L539.2,154.9L543.7,155.0L546.3,154.8L548.1,155.4L550.7,156.6Z"/><path id="LV" d="M552.8,152.0L554.3,153.8L555.1,155.3L552.3,156.2L550.7,156.6L548.1,155.4L546.7,155.3L543.7,155.0L539.2,154.9L536.1,155.6L536.2,153.7L537.6,152.1L540.1,151.2L542.2,153.2L544.3,153.1L544.8,151.1L547.1,150.7L550.6,152.0L552.8,152.0Z"/><path id="EE" d="M554.6,146.6L553.1,148.7L553.9,151.1L550.6,152.0L548.3,151.0L544.8,151.1L545.1,149.6L542.5,149.0L542.2,147.4L545.6,146.7L549.0,146.3L551.9,146.7L554.6,146.6Z"/><path id="DE" d="M517.7,161.1L518.3,162.3L518.5,163.7L519.2,165.0L520.0,167.2L518.2,167.1L515.6,168.0L512.6,169.0L513.4,170.5L514.8,171.1L516.3,172.0L514.4,173.2L514.7,174.6L512.4,174.4L510.5,174.8L508.1,174.7L506.4,174.7L502.7,174.2L499.9,174.6L500.2,173.1L501.6,171.7L497.8,171.3L496.6,169.8L496.4,167.8L496.0,165.5L497.6,165.5L498.9,162.5L498.9,161.3L501.2,161.1L503.5,160.5L502.7,158.2L504.8,158.6L506.5,158.2L509.2,159.7L511.9,160.1L513.4,159.4L516.4,160.4Z"/><path id="BG" d="M540.4,181.4L542.2,182.0L544.3,182.3L548.2,182.4L552.6,181.5L554.6,182.2L556.2,182.4L554.8,183.2L553.8,184.5L554.7,185.6L552.4,185.3L549.6,185.9L547.2,187.0L545.3,186.4L543.2,186.9L541.2,186.8L541.0,185.6L539.7,185.0L540.3,183.9L540.0,182.5L540.4,181.4Z"/><path id="GR" d="M550.1,197.5L545.9,198.2L542.7,197.6L544.7,197.4L546.7,197.3L548.7,197.4L550.1,197.5Z M541.2,186.8L543.2,186.9L545.3,186.4L547.2,187.0L549.6,186.9L549.5,187.8L547.9,187.7L546.5,187.6L543.2,188.0L545.1,189.1L543.7,189.4L542.2,189.4L540.8,188.4L540.9,189.9L542.3,190.7L542.7,192.0L544.1,193.5L541.6,193.0L542.4,193.9L540.7,194.1L541.7,195.6L540.0,195.6L537.8,194.9L536.8,193.5L536.3,192.3L533.9,190.5L535.0,189.1L536.1,187.8L537.8,187.6L540.3,187.2Z"/><path id="TR" d="M599.4,194.3L597.2,194.2L594.1,193.9L589.9,194.5L588.5,194.5L585.4,195.1L583.2,195.1L581.8,194.8L578.8,195.3L577.1,196.3L575.4,195.9L572.6,195.0L570.7,196.0L566.7,196.2L564.5,195.2L561.7,195.2L559.2,196.1L556.6,195.2L553.7,195.2L552.1,193.5L550.2,192.5L551.5,191.1L549.8,190.3L552.7,188.5L556.9,188.5L558.0,187.1L563.1,187.3L566.3,186.1L569.4,185.6L573.8,185.5L578.4,186.8L582.3,187.6L585.4,187.3L587.7,187.4L590.8,186.5L593.7,186.4L596.2,187.3L596.4,188.8L598.4,189.3L597.6,190.3L598.5,192.4L599.4,194.3Z M549.6,185.9L552.4,185.3L554.7,185.6L557.3,186.9L553.7,187.5L550.3,189.0L549.5,187.8L550.9,186.4Z"/><path id="AL" d="M536.1,187.8L535.0,189.1L533.3,189.8L531.7,188.8L531.7,186.7L531.5,185.2L533.5,184.5L534.9,185.9L534.9,187.3Z"/><path id="HR" d="M524.2,176.9L527.0,178.0L529.2,178.4L530.9,178.8L530.7,180.1L527.6,179.7L525.3,179.4L523.5,179.9L522.0,180.2L523.9,181.7L526.1,182.9L529.5,184.4L526.7,184.0L525.1,183.3L522.7,182.8L520.5,181.3L519.7,179.7L518.0,179.4L516.4,179.6L518.4,178.9L519.8,178.9L521.8,178.2L524.2,176.9Z"/><path id="CH" d="M505.6,174.8L506.5,176.0L507.8,176.1L506.5,177.2L504.5,177.0L502.6,177.9L500.7,178.2L498.2,177.9L496.1,177.3L498.0,175.3L499.9,174.6L502.2,174.6L505.6,174.8Z"/><path id="LU" d="M496.1,169.3L496.5,170.7L495.1,170.6L495.4,169.4Z"/><path id="BE" d="M496.4,167.8L496.1,169.3L495.1,170.6L492.8,169.6L491.4,169.8L489.6,168.8L487.1,167.8L488.8,166.6L490.8,166.8L493.3,166.3L495.0,167.3L496.4,167.8Z"/><path id="NL" d="M498.4,161.8L498.2,164.6L496.0,165.5L496.4,167.8L495.0,167.3L493.3,166.3L490.8,166.8L488.8,166.6L490.2,166.0L492.5,162.7L496.2,161.7L498.4,161.8Z"/><path id="PT" d="M455.9,185.8L458.0,185.1L460.2,186.0L462.2,185.8L463.0,186.8L461.7,188.7L461.2,189.8L461.1,191.0L460.3,192.2L460.9,193.2L460.1,194.4L457.6,194.7L456.3,194.8L456.7,193.5L456.4,192.4L454.6,191.6L454.8,190.4L456.1,189.0L456.6,187.9L456.0,186.5Z"/><path id="ES" d="M460.1,194.4L460.9,193.2L460.3,192.2L461.1,191.0L460.0,190.0L461.3,189.0L461.7,187.3L462.2,185.8L460.7,185.8L458.6,186.0L456.9,185.4L455.0,183.7L458.7,182.3L462.0,182.6L465.6,182.6L468.4,183.0L470.6,182.9L474.9,182.9L480.9,184.5L484.9,185.0L488.0,184.7L488.1,185.8L485.6,187.0L482.2,187.4L480.3,189.1L479.3,190.5L480.3,191.6L478.8,192.3L478.2,193.5L476.2,193.8L474.3,195.2L470.9,195.2L468.3,195.2L466.7,195.8L464.4,196.3L462.6,194.7L460.1,194.4Z"/><path id="IE" d="M463.5,160.9L463.9,162.5L461.9,164.6L457.2,165.9L453.4,165.6L455.6,163.2L454.2,160.8L457.8,159.0L459.8,157.8L460.4,159.1L459.8,160.4L461.5,160.4L463.5,160.9Z"/><path id="NC" d="M922.1,280.0L924.3,280.9L925.7,281.6L923.2,281.5L921.3,280.9L919.5,280.1L917.8,279.0L920.1,279.0L922.1,280.0Z"/><path id="SB" d="M912.3,264.6L910.2,264.2L911.8,264.6Z M911.1,263.4L908.8,262.4L908.2,261.6L910.1,262.7Z M908.9,263.8L906.3,263.7L905.9,262.9L907.6,263.1Z M905.7,261.2L906.4,261.9L904.4,261.3L902.9,260.8L905.7,261.2Z M899.0,259.8L897.3,259.4L899.0,259.8Z"/><path id="NZ" d="M951.7,310.8L950.7,311.8L949.4,313.1L947.3,313.8L945.7,313.1L947.3,311.5L946.4,310.5L943.5,309.8L945.5,308.5L946.0,307.2L945.9,306.0L944.8,304.9L943.6,303.9L941.5,302.4L940.4,301.2L942.8,302.0L944.9,302.4L945.6,303.9L947.6,305.7L947.6,304.6L949.2,306.4L951.4,306.9L953.2,307.1L954.7,306.4L956.0,306.6L955.4,308.2L954.6,309.2L952.6,309.2L952.1,310.5Z M932.4,317.3L934.7,316.3L936.3,315.4L937.5,314.0L938.9,312.5L940.8,311.6L942.0,313.1L943.9,312.4L944.7,314.0L941.9,316.2L940.6,317.0L937.2,318.7L936.5,319.9L935.0,321.9L932.9,322.8L929.1,323.4L927.4,322.7L924.5,322.6L925.5,320.4L928.8,318.4L930.5,318.1L932.4,317.3Z"/><path id="AU" d="M873.8,312.2L875.4,312.3L875.6,314.5L874.4,316.7L871.7,317.5L869.5,317.3L867.8,315.7L867.5,314.5L865.9,312.8L867.7,312.2L870.3,312.8L871.8,312.5L873.8,312.2Z M816.4,297.3L813.6,298.2L811.3,298.5L810.7,299.4L807.5,300.1L805.8,300.3L803.5,300.0L801.5,300.1L799.7,300.2L798.1,301.1L796.0,301.5L792.8,302.0L791.0,302.0L788.2,300.9L786.7,300.6L786.8,299.6L788.6,299.0L788.8,297.3L788.5,296.3L787.1,294.7L786.7,293.8L786.8,292.9L785.7,291.8L784.5,290.7L784.1,289.5L782.6,288.3L782.5,286.8L784.6,287.9L784.6,287.1L783.3,285.9L782.4,284.9L782.7,284.1L783.6,282.9L783.3,282.0L784.4,281.0L784.6,282.1L785.7,281.1L787.9,280.6L791.2,279.4L793.2,279.5L795.3,278.9L796.9,278.7L799.5,278.3L802.3,277.9L803.7,277.2L804.4,276.5L806.0,275.7L806.2,274.3L808.0,273.1L809.2,274.4L809.3,273.4L811.4,273.0L811.7,271.9L813.1,271.2L815.1,270.4L817.6,269.6L820.8,270.0L822.3,270.9L824.0,270.9L825.7,271.0L825.1,270.2L826.4,269.1L827.2,268.4L828.3,267.6L829.9,267.1L831.3,267.2L833.5,267.0L833.5,266.2L831.5,265.8L833.0,265.6L834.7,265.9L836.1,266.5L838.4,266.9L840.8,267.1L842.4,266.7L844.0,266.6L844.5,268.1L842.6,268.7L842.1,270.0L841.3,271.1L843.5,271.9L845.5,272.3L846.9,272.8L848.8,273.7L851.0,274.1L853.9,275.0L855.7,274.5L856.2,273.7L857.1,272.3L857.9,271.1L857.7,270.0L857.4,269.2L857.7,268.1L857.8,267.4L858.5,266.6L859.0,265.8L860.0,264.9L861.0,266.5L861.8,267.3L862.7,268.0L862.9,268.8L863.8,270.4L865.5,269.9L867.7,271.1L868.0,272.9L869.0,273.8L869.8,275.1L869.5,275.8L870.4,276.8L873.3,277.6L875.1,278.3L876.9,278.9L878.1,280.2L879.1,281.8L881.3,282.2L882.4,283.5L884.3,284.5L887.6,286.3L888.4,287.5L888.4,288.4L888.2,289.4L889.5,290.7L889.4,292.1L888.2,294.3L888.2,295.2L887.7,296.4L886.5,297.9L884.6,298.7L883.6,300.0L881.9,302.2L880.2,304.4L879.9,305.6L878.5,306.7L875.5,306.8L873.0,307.5L870.2,309.0L868.0,308.2L866.3,307.9L866.8,307.0L865.3,307.3L863.0,308.6L860.7,308.1L859.1,307.8L857.6,307.7L855.0,307.2L853.3,306.1L852.8,304.8L852.2,303.9L848.3,303.0L848.6,300.9L847.3,302.1L844.9,302.4L846.3,301.5L846.7,300.5L847.5,298.4L845.3,299.9L843.7,300.4L842.6,301.8L840.6,301.1L840.6,300.2L839.0,299.0L837.6,298.3L834.6,297.0L832.8,296.9L830.2,296.1L825.4,296.3L822.0,296.9L818.9,297.4L816.4,297.3Z"/><path id="LK" d="M698.1,239.5L697.7,241.0L694.3,241.7L693.0,240.6L692.5,238.6L693.7,236.3L695.6,237.1L696.8,238.1L698.1,239.5Z"/><path id="CN" d="M771.9,224.3L769.7,223.8L769.7,222.6L773.9,221.5L775.4,221.5L774.9,222.7L774.2,223.6L771.9,224.3Z M694.0,185.0L693.8,183.9L695.6,183.4L693.2,180.0L698.5,179.2L699.9,178.8L701.8,175.2L707.1,175.9L708.6,174.9L708.7,172.9L710.9,172.7L713.0,171.3L714.7,172.6L716.9,173.7L720.7,174.4L722.6,176.1L721.6,178.4L725.7,179.6L729.3,179.9L732.5,181.1L734.2,181.3L735.4,183.1L736.9,184.2L739.9,184.2L745.4,184.6L748.9,184.4L751.6,184.6L755.5,185.8L758.7,185.8L763.0,185.4L767.3,184.7L771.3,184.6L774.4,184.0L776.3,182.9L778.2,182.3L776.9,180.9L778.3,179.7L779.8,179.8L782.6,180.2L785.2,179.2L789.3,178.4L791.2,177.1L793.1,176.5L797.0,176.3L799.1,176.5L797.0,174.3L794.8,173.7L792.8,174.4L790.2,174.1L788.6,174.4L789.8,171.4L791.1,169.8L794.3,170.6L798.1,169.3L800.5,166.0L802.0,165.2L801.9,164.0L800.5,163.4L802.7,162.3L806.0,161.9L809.5,161.8L813.5,162.5L815.9,163.4L817.5,165.6L819.4,168.0L820.4,170.1L825.1,170.8L828.2,172.3L829.3,174.2L833.4,174.2L835.7,173.4L840.1,172.8L838.7,174.7L836.7,177.6L834.9,179.6L831.7,179.2L829.4,179.9L830.1,181.6L829.7,183.9L828.4,183.9L828.4,184.9L826.7,183.8L825.6,184.8L821.5,185.6L821.9,186.6L819.6,186.5L816.5,187.3L813.5,188.3L811.4,189.4L807.6,189.9L805.7,190.8L802.8,191.3L804.2,190.4L805.8,188.5L804.4,187.6L802.0,188.2L799.0,189.5L797.4,190.6L794.8,190.7L793.4,191.6L794.8,192.8L797.0,193.0L799.2,194.3L802.2,193.1L804.6,193.8L806.3,193.8L806.7,194.7L802.9,195.2L801.7,196.2L799.1,197.0L797.7,198.2L800.6,199.1L801.7,200.8L803.3,202.3L805.1,203.5L805.0,204.8L803.4,205.2L804.0,206.1L805.6,206.6L805.2,207.9L804.5,209.1L803.0,209.3L801.1,210.9L798.9,213.0L796.4,214.8L792.8,216.2L789.0,217.5L786.0,217.7L784.4,218.3L782.0,218.6L778.2,219.3L775.4,219.6L774.5,221.1L773.0,221.2L772.3,220.1L769.4,219.1L765.4,218.9L764.6,217.5L762.2,217.2L758.6,217.4L756.0,217.6L753.9,217.6L752.5,218.0L751.1,218.2L751.5,219.9L750.1,219.9L749.7,218.9L747.8,219.3L744.6,218.5L745.4,217.2L743.7,216.9L743.1,215.6L740.3,215.8L740.6,214.0L743.1,212.7L743.2,211.4L743.2,210.2L741.1,208.9L739.5,209.1L736.7,208.8L736.3,207.2L734.4,207.8L732.2,207.4L729.1,208.5L726.7,209.6L724.5,209.8L721.9,209.4L720.0,209.0L718.6,209.4L716.8,210.6L716.6,209.3L715.0,209.7L711.9,209.5L708.9,209.1L706.7,208.4L704.6,208.1L702.2,207.1L699.5,206.1L697.4,205.6L692.6,204.9L690.0,203.8L689.2,202.0L691.1,202.3L691.2,201.4L690.2,200.6L690.4,199.2L687.6,197.2L683.2,196.5L682.4,195.2L680.4,194.4L679.5,192.9L678.0,191.8L676.5,190.3L679.4,188.6L681.2,188.3L684.1,188.5L685.1,187.3L688.5,187.1L693.7,185.4Z"/><path id="CN-TW" d="M804.7,215.0L803.1,217.5L802.0,218.7L800.6,217.4L800.3,216.3L801.9,214.8L804.0,213.7L804.7,215.0Z"/><path id="IT" d="M507.8,176.1L509.5,176.4L512.4,175.6L516.8,176.9L517.2,178.7L515.0,178.4L512.9,179.1L512.7,180.6L513.6,181.6L516.1,182.6L517.4,184.2L520.4,185.7L522.5,185.7L524.8,187.1L526.7,187.7L529.0,188.6L528.8,189.6L527.3,188.8L525.0,188.5L523.9,189.7L525.8,190.3L525.5,191.3L522.9,192.9L522.4,191.5L521.9,190.1L521.1,189.2L519.2,188.2L517.5,187.9L514.4,187.0L512.3,186.2L509.8,184.9L508.0,183.9L507.2,182.0L503.7,181.1L500.9,182.3L498.7,181.3L498.0,179.8L498.1,178.5L500.7,178.2L502.2,177.6L503.9,177.8L506.5,177.2L507.8,176.1Z M519.4,192.6L521.4,192.5L520.4,193.8L520.3,195.3L518.2,194.6L516.9,194.4L513.1,193.5L513.5,192.6L516.6,192.8L519.4,192.6Z M503.2,187.6L504.6,187.1L506.2,188.4L505.8,190.8L503.5,191.3L502.4,188.6L501.8,187.6L503.2,187.6Z"/><path id="DK" d="M506.5,158.2L504.8,158.6L502.7,158.2L501.7,156.9L501.6,154.3L502.8,152.9L505.1,152.7L508.2,151.3L508.1,152.6L507.7,154.2L509.1,154.6L507.7,155.2L505.7,157.0Z M513.0,155.4L513.8,156.7L512.2,158.6L509.4,157.3L513.0,155.4Z"/><path id="GB" d="M463.5,160.9L461.5,160.4L459.8,160.4L460.4,159.1L459.8,157.8L462.0,157.7L464.9,159.2L463.5,160.9Z M471.7,161.9L472.1,160.6L470.4,159.1L467.1,158.7L467.4,156.9L465.1,157.4L464.9,155.0L463.6,153.7L464.6,151.1L466.6,148.9L468.8,149.1L472.0,148.9L469.1,151.8L471.9,151.4L474.8,151.4L474.1,153.5L471.7,155.8L474.4,155.9L477.0,159.1L478.9,159.4L480.5,162.1L484.5,163.5L484.2,164.9L482.8,165.6L483.9,166.7L481.5,167.9L477.9,167.9L473.4,168.5L470.4,169.1L467.9,168.8L466.0,169.7L464.6,169.2L468.5,166.9L470.9,166.4L466.7,166.1L468.7,164.5L467.3,163.2L467.8,161.7L471.7,161.9Z"/><path id="IS" d="M441.3,125.2L440.7,127.4L443.7,129.7L440.2,132.2L432.5,134.4L430.3,134.9L426.7,134.5L419.3,133.5L421.9,132.1L416.1,130.5L420.8,129.8L415.1,128.1L416.9,125.9L421.0,125.4L425.1,127.7L429.2,125.8L432.5,126.8L436.9,125.0L441.3,125.2Z"/><path id="AZ" d="M603.7,185.9L606.3,187.1L608.0,186.7L609.6,186.0L611.0,186.9L612.3,188.2L614.4,188.8L612.2,189.0L611.7,190.4L610.3,191.4L609.7,192.4L608.0,191.5L608.2,190.0L604.0,191.5L604.0,190.3L601.6,189.5L601.0,188.3L599.9,187.0L602.6,187.2L604.0,187.3L603.1,186.1Z M603.0,191.6L601.2,191.3L599.9,190.5L602.0,190.2L603.0,191.6Z"/><path id="GE" d="M586.5,182.9L589.1,183.0L593.1,183.3L596.7,184.2L598.8,184.3L601.3,184.7L603.7,185.9L604.4,187.1L602.6,187.2L600.6,186.7L596.2,187.3L593.7,186.4L590.8,186.5L590.5,184.4L589.0,183.7L587.5,183.5Z"/><path id="PH" d="M802.2,232.2L800.9,231.1L803.1,231.2L803.4,232.9Z M806.9,236.1L807.9,234.8L809.3,234.7L808.9,235.7L810.9,234.3L810.6,235.6L808.8,237.0L806.3,236.4Z M817.0,238.3L817.3,239.2L817.4,240.0L816.5,241.3L815.6,239.8L814.3,240.6L815.2,241.6L811.3,241.4L810.5,240.4L809.6,239.1L807.5,239.6L805.6,240.4L806.2,238.8L807.8,238.4L809.3,237.9L812.3,238.1L814.6,237.5L814.4,236.4L816.6,237.0L816.8,237.8Z M796.0,237.0L792.5,238.3L793.8,237.4L795.7,236.5L797.3,235.5L798.7,234.1L799.2,235.3L797.4,236.0L796.0,237.0Z M806.2,224.2L806.7,225.9L806.0,227.1L804.4,227.6L804.0,228.7L804.6,229.9L806.0,230.0L810.5,230.7L810.3,231.4L810.9,232.4L808.8,231.7L807.8,231.0L805.4,230.7L803.0,230.9L801.8,230.0L800.2,229.0L799.7,227.0L801.0,225.2L801.9,223.8L803.5,223.8L805.2,224.3Z M805.4,234.0L808.3,233.8L807.0,235.0L805.3,235.4L805.4,234.0Z M814.7,233.0L815.4,234.6L813.4,234.2L814.1,235.5L812.7,234.9L811.5,233.9L813.0,234.0L811.4,232.4L813.9,232.4Z"/><path id="MY" d="M746.9,241.0L749.5,241.4L749.7,242.1L751.5,241.9L753.0,241.5L754.6,242.3L755.7,243.2L755.8,244.2L755.8,245.3L756.0,246.1L758.0,247.7L756.1,248.3L753.5,247.3L750.4,246.2L750.1,245.5L748.5,244.5L748.2,243.4L747.2,242.6L747.5,241.6Z M794.4,244.2L792.0,244.0L789.0,244.0L788.1,245.6L785.7,248.0L783.5,248.3L781.0,247.9L778.1,248.7L776.4,248.6L774.7,248.9L772.9,248.1L772.4,247.2L774.4,247.7L776.5,247.4L777.0,246.3L781.3,245.7L783.2,244.6L784.5,243.7L785.8,244.4L787.6,244.0L787.7,243.1L789.9,241.5L791.3,240.4L793.7,241.1L795.6,242.1L797.8,242.5L795.8,243.1L794.4,244.2Z"/><path id="BN" d="M787.9,242.4L787.6,244.0L785.8,244.4L784.5,243.7L787.9,242.4Z"/><path id="SI" d="M516.8,176.9L519.0,177.0L520.4,176.6L522.7,176.5L524.2,176.9L522.0,177.4L520.9,178.4L518.9,178.6L516.6,178.9L516.5,177.8Z"/><path id="FI" d="M556.2,115.6L555.9,118.3L559.9,120.8L557.5,123.5L560.6,127.4L558.8,130.3L561.2,132.7L560.1,134.8L564.0,136.9L563.0,138.4L560.6,140.1L554.9,143.8L550.0,144.0L545.3,145.0L541.0,145.6L539.4,144.1L536.9,143.2L537.5,140.3L536.2,137.7L537.4,135.9L539.8,133.9L545.9,130.4L547.7,129.8L543.7,126.7L542.8,119.9L538.6,117.3L535.1,115.5L536.7,114.4L539.6,116.5L543.1,116.3L546.0,117.2L548.5,115.5L549.8,112.6L554.0,111.2L557.4,112.8L556.2,115.6Z"/><path id="SK" d="M540.2,171.5L538.9,172.9L535.5,172.5L534.0,173.1L532.4,173.3L530.1,173.6L527.6,174.3L525.3,173.6L525.6,172.1L527.7,171.9L529.1,171.0L530.4,170.8L532.9,171.3L534.4,170.8L537.6,170.7L540.2,171.5Z"/><path id="CZ" d="M520.0,167.2L523.3,168.1L525.0,168.5L526.8,168.8L529.0,169.6L529.1,171.0L527.7,171.9L525.6,172.1L524.0,172.2L520.7,171.6L518.2,172.6L516.3,172.0L514.8,171.1L513.4,170.5L512.6,169.0L514.6,168.5L517.5,167.5L518.9,167.4Z"/><path id="ER" d="M577.1,229.8L578.0,227.1L578.3,226.1L581.1,225.4L582.4,224.6L584.0,226.3L584.7,227.6L586.2,228.3L589.8,229.7L591.3,230.5L592.7,231.3L594.9,232.2L592.9,232.4L590.9,231.1L589.1,230.2L586.7,229.6L584.9,229.6L582.7,229.6L581.1,229.0L580.3,230.1L577.1,229.8Z"/><path id="JP" d="M858.4,190.8L855.9,192.6L855.9,194.4L854.9,195.8L855.4,196.6L854.0,197.8L850.6,198.6L845.9,198.7L842.1,200.6L840.3,200.0L840.2,198.7L835.6,199.1L832.4,199.9L829.3,199.9L832.0,201.2L830.2,203.9L828.5,204.6L827.9,202.5L826.2,202.0L825.1,200.9L827.6,200.4L829.0,199.3L831.7,198.5L833.6,197.3L839.0,196.8L841.8,197.2L844.6,194.1L846.4,194.9L850.3,193.2L851.8,192.5L853.5,190.3L853.0,188.3L854.1,187.1L857.0,186.8L858.4,189.3L858.4,190.8Z M865.6,181.9L867.5,181.1L868.1,183.2L864.2,183.7L861.8,185.6L857.6,184.3L856.2,186.4L853.2,186.4L852.8,184.6L854.2,183.1L857.0,183.0L857.8,180.3L858.6,178.8L861.7,180.8L863.8,181.5L865.6,181.9Z M833.0,200.6L834.5,199.6L836.0,199.8L839.0,199.5L837.9,201.1L835.4,200.9L834.7,201.9L833.0,201.4Z"/><path id="PY" d="M324.9,278.6L325.7,279.4L325.5,281.5L328.3,281.8L331.2,281.9L332.0,283.7L334.3,284.1L335.2,285.2L334.9,286.1L334.3,287.0L333.9,288.4L331.5,289.6L329.4,289.8L326.4,289.6L323.7,289.2L326.3,286.8L323.2,285.5L319.9,284.4L317.7,284.2L312.8,281.7L313.9,279.9L314.0,279.1L315.2,277.8L319.9,277.4L322.4,277.4L324.8,278.2Z"/><path id="YE" d="M618.7,223.1L620.8,225.5L621.6,226.5L619.7,226.9L619.1,228.1L616.5,228.7L612.2,229.3L609.8,230.4L607.8,230.3L606.3,230.9L604.6,231.2L602.3,231.3L600.4,231.9L598.7,232.2L596.0,232.3L595.3,231.5L595.3,230.7L594.4,229.2L593.9,227.9L594.1,227.0L595.0,225.9L596.8,225.6L600.6,225.4L603.6,225.7L605.3,226.1L608.5,224.3L611.0,223.7L618.7,223.1Z"/><path id="SA" d="M573.2,207.3L576.2,207.6L578.0,206.5L580.0,206.3L581.3,205.5L578.7,203.8L584.0,203.0L587.7,203.2L591.7,204.4L599.2,207.6L604.2,207.7L606.6,207.9L609.1,208.6L610.2,210.0L611.9,210.9L613.7,211.5L613.6,212.7L614.7,213.6L615.5,214.5L617.0,214.7L617.6,215.6L618.7,217.2L626.7,217.9L628.4,218.7L626.7,221.6L618.7,223.1L611.0,223.7L608.5,224.3L606.6,225.9L604.7,225.6L601.1,225.6L597.5,225.4L595.7,225.2L595.2,226.5L593.7,226.4L592.7,225.3L591.3,224.8L589.9,223.6L589.2,222.4L587.3,221.4L584.4,219.7L584.1,218.7L584.2,217.8L582.6,216.1L580.0,215.2L579.1,214.3L578.5,213.2L576.7,211.7L575.0,210.4L573.7,209.4L572.8,208.5L573.2,207.3Z"/><path id="AQ" d="M350.2,429.6L351.6,429.6L355.6,428.2L359.6,429.6L362.9,432.5L364.0,436.9L364.4,444.1L360.3,446.6L356.0,448.8L351.0,450.8L345.4,452.5L339.1,452.0L335.6,449.1L341.7,443.5L344.0,440.8L345.7,437.6L348.5,432.4L350.2,429.6Z M303.2,445.9L309.2,446.3L315.0,447.1L317.0,443.7L318.4,441.0L321.1,444.2L320.4,448.4L314.0,451.1L308.0,451.6L304.7,448.7L303.2,445.9Z M282.9,393.4L284.7,392.9L287.8,393.1L288.6,390.9L288.7,386.1L290.2,384.3L292.7,383.7L294.1,385.1L295.8,388.4L297.5,392.1L297.3,395.7L293.4,398.0L290.5,398.9L287.0,398.8L285.1,397.7L282.2,398.3L280.1,397.0L282.9,393.4Z M207.1,396.2L208.8,395.4L212.2,396.0L216.0,396.3L219.0,397.0L221.9,396.4L223.5,399.0L221.4,398.7L218.1,398.8L214.8,398.7L211.2,398.9L208.5,398.0L207.1,396.2Z M153.0,404.4L156.8,403.7L160.2,404.4L163.4,403.6L161.9,405.3L159.4,406.6L155.7,406.2L153.0,404.4Z M140.6,403.5L142.5,402.4L145.2,403.6L149.2,405.5L147.7,405.3L144.2,404.8L140.6,403.5Z M43.4,433.4L45.1,430.8L50.0,431.9L52.7,434.0L54.7,436.6L50.3,441.0L46.8,438.3L45.3,435.7L43.4,433.4Z M960.0,494.7L960.0,499.2L0.0,499.2L0.0,494.7L2.5,486.5L7.3,490.9L10.4,486.0L15.0,492.1L18.4,486.2L26.8,483.1L29.3,486.2L34.6,492.6L42.2,496.4L48.2,499.2L58.5,499.2L66.2,499.2L77.5,499.2L83.9,499.2L91.0,499.2L98.4,499.2L88.5,492.0L79.8,488.7L77.6,483.4L70.4,480.6L71.9,470.4L72.4,462.1L67.9,459.4L65.9,456.1L61.8,453.2L68.2,453.7L74.4,452.3L78.3,455.3L83.0,452.7L87.4,449.4L89.6,446.6L85.2,441.1L81.2,438.9L75.8,438.5L71.0,437.4L65.8,436.7L64.1,434.0L60.6,431.8L58.5,429.4L57.7,422.2L61.4,424.7L65.8,424.1L70.0,423.3L72.2,426.0L76.4,425.4L80.0,424.0L83.3,422.3L86.4,420.3L90.4,419.7L89.3,415.4L93.6,412.5L95.1,414.3L99.2,413.2L102.3,411.8L106.1,411.7L109.7,411.2L113.3,409.9L116.2,408.8L119.4,407.7L121.5,408.0L123.3,408.4L127.3,407.7L130.9,408.6L134.5,408.5L138.0,407.8L141.6,408.3L145.6,408.8L149.3,408.6L153.2,408.7L157.1,408.8L160.8,408.6L163.5,407.1L166.7,406.3L170.1,407.4L173.3,406.5L176.1,404.7L177.9,406.3L180.5,409.8L183.3,408.3L186.5,410.2L190.1,410.9L193.2,412.3L196.9,412.0L200.3,411.1L204.4,411.3L208.0,412.0L211.6,413.0L213.0,410.7L211.3,408.9L206.5,406.7L205.0,404.8L203.5,399.5L205.6,400.1L209.1,400.4L212.5,400.1L215.6,400.8L218.3,402.2L223.1,404.2L226.5,403.6L230.2,402.6L233.5,402.1L236.2,403.2L239.8,402.8L242.1,399.2L244.2,401.3L247.3,402.1L250.6,401.7L252.8,403.6L256.3,403.8L259.6,404.3L262.7,405.4L264.8,403.6L268.5,403.8L272.2,403.3L274.9,404.3L276.7,406.0L280.3,405.5L283.1,404.4L285.8,403.2L289.0,402.5L292.8,402.0L296.2,401.3L298.8,400.3L300.3,398.8L300.7,395.0L298.9,391.6L297.4,388.5L297.5,385.4L299.8,382.4L299.7,379.3L300.7,376.3L302.1,375.2L303.8,373.9L305.7,372.9L307.8,371.9L310.3,369.5L312.0,368.7L314.6,368.5L316.2,367.5L318.1,366.9L320.3,366.5L322.2,365.7L323.7,364.7L325.8,364.4L327.4,365.2L323.7,367.1L320.6,367.3L318.4,367.6L316.5,368.4L314.6,369.2L312.9,371.5L314.3,373.9L312.5,374.7L310.0,375.0L308.5,376.1L307.0,377.2L305.3,378.8L305.8,381.7L307.2,382.9L309.4,383.8L311.5,385.0L313.1,388.1L315.2,391.1L316.3,396.7L317.3,400.2L317.8,404.6L316.3,406.7L314.8,408.4L311.2,409.1L308.4,412.8L304.4,414.8L300.8,415.7L297.5,416.9L293.9,418.2L291.7,420.6L287.4,420.9L282.7,420.6L278.5,421.1L274.0,421.1L278.9,424.6L281.9,426.4L283.6,428.7L280.6,430.8L276.0,430.1L272.2,431.8L271.9,437.6L275.1,440.1L279.0,446.0L284.7,447.3L289.5,449.6L293.3,452.3L298.2,455.2L304.8,456.6L311.3,459.2L315.9,462.1L320.8,465.5L323.4,470.6L328.0,470.8L332.4,467.6L337.0,464.3L342.6,461.7L347.3,459.0L353.9,458.9L360.5,460.2L365.8,462.5L367.6,458.3L371.3,455.5L378.0,455.3L383.3,453.4L388.3,451.5L393.8,450.3L399.7,448.8L403.9,446.6L402.0,443.8L400.8,438.2L395.7,438.5L390.2,439.6L385.0,439.6L384.6,431.6L389.6,428.5L394.1,427.0L397.3,425.1L400.6,423.3L403.0,420.9L406.6,419.8L410.2,419.0L412.1,418.5L416.2,418.3L420.1,417.5L423.4,416.4L426.6,415.1L429.6,413.7L433.3,412.0L435.6,410.2L438.1,408.7L436.1,405.5L438.8,402.0L441.6,401.0L444.5,399.9L447.2,398.5L449.3,396.7L452.5,393.4L455.7,393.7L460.2,395.3L461.7,392.0L464.6,392.4L468.4,394.3L471.9,393.5L475.2,393.0L478.2,393.2L482.3,393.6L485.0,392.8L488.1,392.2L491.0,391.6L493.8,390.7L496.7,390.0L499.0,389.1L500.6,387.7L502.6,388.7L505.4,388.1L507.3,390.1L508.8,391.6L511.9,390.7L515.8,388.0L519.3,388.2L522.5,388.2L525.4,387.7L528.5,387.6L531.4,387.7L534.3,388.1L537.2,388.4L540.2,391.0L543.1,390.2L546.2,390.1L549.3,390.1L552.2,390.0L554.9,389.4L557.7,388.9L560.1,387.8L562.6,387.1L565.3,386.7L567.3,385.6L568.8,383.5L570.3,382.2L573.1,382.8L576.4,385.1L579.2,384.8L581.1,386.2L583.1,387.2L585.8,386.3L589.1,383.9L591.9,382.6L594.5,382.1L597.6,381.3L599.7,380.5L601.9,379.7L604.0,378.9L606.5,379.3L608.9,378.0L610.6,377.0L613.1,377.1L615.3,376.3L618.1,374.1L620.3,373.4L623.0,372.9L625.4,372.6L627.8,372.8L630.3,373.1L632.4,374.1L635.0,376.8L636.7,377.7L639.8,378.2L641.6,379.2L643.8,380.2L646.4,380.4L648.5,379.7L650.8,378.2L653.3,378.9L655.9,379.4L658.4,379.8L661.0,380.1L663.7,380.1L665.9,384.0L665.5,386.8L662.9,387.8L660.8,389.3L664.2,390.9L662.5,394.2L663.2,397.4L666.3,397.8L669.4,397.0L670.9,395.3L673.2,392.3L674.9,391.1L677.0,387.6L678.6,387.2L681.7,387.0L684.3,386.6L687.1,385.9L689.1,383.0L691.0,381.6L693.6,380.6L695.8,379.9L697.3,378.7L698.8,378.0L700.7,377.5L703.4,377.8L705.8,377.5L708.4,377.0L711.3,377.2L713.3,376.3L714.6,373.9L716.9,376.6L719.1,377.2L721.7,377.5L724.2,377.1L727.0,377.4L729.5,377.5L731.1,377.1L733.4,377.3L735.4,378.1L737.8,377.6L740.7,377.6L743.1,377.1L745.9,377.6L747.7,376.4L749.0,375.2L750.9,374.3L754.2,371.8L755.9,372.2L758.0,373.1L759.8,374.4L763.2,376.5L765.8,376.6L768.2,376.6L771.1,376.1L774.0,375.7L776.2,374.7L778.0,373.7L781.0,373.5L782.9,372.8L785.0,373.5L786.4,374.6L788.3,375.7L791.2,375.5L793.0,376.4L796.2,377.3L799.6,377.7L802.3,377.4L804.4,376.3L806.2,375.2L808.6,374.9L811.0,375.4L813.8,375.7L816.3,375.2L818.7,375.2L821.0,375.5L823.5,375.9L825.9,375.2L828.8,374.7L831.5,374.6L834.5,374.6L837.0,374.2L839.4,373.9L840.2,370.9L841.9,371.8L843.2,374.8L846.6,376.6L849.6,376.3L853.1,376.3L855.5,376.1L859.0,376.1L861.5,376.0L865.0,376.1L868.0,376.4L869.9,377.5L871.1,380.0L873.9,380.8L876.9,381.8L880.4,382.4L884.0,383.0L886.7,383.6L889.7,383.7L891.4,382.4L893.8,383.5L895.8,384.7L898.2,385.6L901.4,386.0L904.5,386.5L908.8,389.0L910.9,390.5L913.8,391.1L916.9,391.1L919.8,391.3L923.0,391.2L926.2,391.6L929.1,392.1L931.9,393.1L934.7,394.0L936.6,395.3L934.8,398.6L932.7,402.4L927.9,405.2L926.4,407.0L922.9,408.1L919.9,412.1L918.0,413.9L916.2,418.3L916.0,423.3L917.5,425.7L919.3,430.5L924.3,431.4L920.5,435.6L916.4,437.1L911.4,437.4L909.1,441.7L907.5,448.6L906.1,451.8L909.7,454.8L911.0,458.7L913.3,462.3L916.5,465.7L920.3,469.1L924.3,472.6L930.4,476.3L931.7,482.4L939.4,485.2L941.9,490.3L949.3,486.8L955.4,491.2L960.0,494.7Z"/><path id="CY" d="M567.3,197.8L569.0,197.8L570.6,197.9L567.9,198.8L566.0,197.9Z"/><path id="MA" d="M474.2,197.8L475.2,198.8L475.4,199.9L476.3,201.6L476.5,202.6L473.0,202.9L470.3,203.6L470.2,204.8L467.0,205.5L466.0,206.3L463.8,206.7L461.2,207.0L456.9,208.1L456.9,210.0L456.5,210.8L454.9,210.9L452.8,211.2L449.6,211.2L448.8,212.4L446.7,214.5L443.0,216.1L442.1,218.2L440.7,219.4L434.7,219.5L435.8,218.4L436.6,217.6L437.4,216.1L438.9,215.1L440.5,214.0L440.5,213.1L441.5,212.2L443.3,211.6L445.0,210.0L446.3,209.4L448.8,209.2L450.9,208.1L452.3,207.7L454.5,206.4L453.8,204.4L454.8,203.0L455.2,202.1L456.9,201.0L459.6,200.2L461.6,199.5L463.3,197.8L464.2,196.8L466.1,196.8L467.8,197.5L470.3,197.4L473.1,197.7Z"/><path id="EG" d="M578.3,218.7L567.7,218.7L557.4,218.7L546.7,218.7L546.7,213.1L546.7,207.5L545.9,206.2L546.6,205.2L547.1,203.8L550.7,203.7L553.2,204.2L555.9,204.6L559.2,204.4L562.6,203.8L564.5,204.0L565.8,204.3L568.0,204.6L570.1,204.7L572.9,206.7L572.4,207.7L571.8,208.9L571.1,209.7L569.6,209.5L566.5,206.5L567.3,208.4L568.9,209.9L570.9,212.4L571.9,213.2L572.8,214.1L575.2,215.8L574.7,217.0L577.8,218.4Z"/><path id="LY" d="M546.7,218.7L546.7,221.6L543.6,221.6L532.9,219.4L522.3,216.5L519.6,217.4L517.7,217.9L516.2,217.1L512.0,216.4L510.8,215.5L508.7,214.8L506.5,214.2L504.9,212.4L505.7,210.8L506.0,210.0L506.3,207.9L505.3,205.8L506.8,204.7L508.4,203.4L510.5,202.4L510.6,201.2L513.8,201.7L517.1,201.9L520.7,202.6L521.9,204.1L524.3,204.4L528.1,205.1L530.9,205.9L533.5,204.7L532.9,203.5L535.6,201.9L537.4,201.7L541.1,202.0L543.0,202.7L546.5,203.2L546.1,204.5L545.9,206.2L546.7,207.5L546.7,213.1L546.7,218.7Z"/><path id="ET" d="M607.4,238.8L599.9,243.0L596.4,243.1L594.1,244.1L592.3,244.1L589.8,244.6L586.3,244.7L583.7,245.1L581.7,245.0L578.3,243.8L576.4,243.8L575.5,242.6L574.1,242.3L572.6,240.8L570.9,239.9L569.5,239.3L567.9,239.2L568.8,238.4L570.2,238.3L570.6,236.6L571.4,235.2L572.9,234.2L574.0,233.1L575.6,232.4L576.7,231.0L577.1,229.8L580.3,230.1L581.1,229.0L582.7,229.6L584.3,229.3L586.7,229.6L589.1,230.2L590.9,231.1L592.0,232.0L592.0,233.1L591.3,234.1L592.8,234.6L594.5,236.0L596.5,237.2L605.2,238.9L607.4,238.8Z"/><path id="DJ" d="M592.9,232.4L594.9,232.2L595.4,233.2L593.9,233.6L594.1,234.7L591.3,234.6L591.1,233.7L592.9,232.4Z"/><path id="UG" d="M570.4,251.3L565.0,251.4L562.1,251.4L559.5,252.0L558.9,250.8L559.7,249.2L561.2,247.8L563.1,246.9L562.2,245.1L565.0,245.1L567.2,244.7L569.0,244.7L570.7,244.1L571.9,245.1L572.3,245.8L573.4,247.4L572.5,248.4L571.1,249.3L570.4,251.3Z"/><path id="RW" d="M561.1,251.6L562.2,252.4L562.0,253.2L559.8,253.3L559.0,254.1L557.4,253.9L557.6,253.2L558.1,252.3L559.5,252.0L561.1,251.6Z"/><path id="BA" d="M529.5,184.4L527.1,183.7L525.1,182.4L523.3,181.1L522.6,179.4L524.1,179.4L527.6,179.7L529.5,179.7L531.6,180.1L532.3,181.7L531.2,182.7L529.9,183.3L529.5,184.4Z"/><path id="MK" d="M539.7,185.0L541.0,185.6L541.2,186.8L538.8,187.2L536.1,187.8L534.6,186.5L535.4,185.5L536.9,185.2L538.4,185.0Z"/><path id="RS" d="M530.2,178.1L532.3,177.5L533.9,177.6L535.4,178.4L537.3,179.5L539.1,180.9L540.5,180.7L539.8,181.8L541.3,183.3L539.8,184.5L538.4,185.0L537.2,184.0L535.5,183.2L534.0,184.1L532.3,183.3L532.3,181.7L531.6,180.1L530.9,178.8Z"/><path id="ME" d="M533.5,184.5L531.5,185.2L529.2,184.7L529.9,183.3L531.2,182.7L533.2,183.5L533.5,184.5Z"/><path id="KV" d="M534.9,185.9L533.5,184.5L535.0,183.3L536.4,183.6L538.1,184.3L535.4,185.5Z"/><path id="TT" d="M315.5,235.0L317.1,234.8L317.5,235.9L315.3,236.0L315.5,235.0Z"/><path id="SS" d="M562.2,245.1L559.9,244.2L557.8,243.9L555.8,244.0L553.0,242.7L550.6,241.7L549.9,240.9L547.0,239.6L545.5,238.5L543.7,238.0L545.4,237.6L546.1,236.3L548.8,235.5L550.6,236.7L552.3,236.5L554.2,236.6L557.2,236.9L558.7,236.3L562.2,236.5L563.6,236.3L564.9,235.3L566.4,234.5L566.2,233.7L567.3,232.9L568.2,234.0L568.6,235.0L569.9,235.6L570.2,236.8L570.6,237.9L568.8,238.4L567.9,239.2L569.5,239.3L570.9,239.9L572.6,240.8L574.1,242.3L572.3,243.3L570.7,244.1L569.0,244.7L567.2,244.7L565.0,245.1L563.3,244.7Z"/></svg>